# WaveFront *.obj file (generated by Autodesk ATF)

#mtllib arm1.mtl

g 实体1

v 1.840964 10.897988 -0.228308
v 0.688557 4.362361 -0.228308
v -0.582259 4.586440 -0.228308
v 0.570148 11.122067 -0.228308
v 0.688557 4.362361 1.062112
v -0.582259 4.586440 1.062112
v 1.840964 10.897988 1.062112
v 0.570148 11.122067 1.062112
vt -0.036869 -0.331822 0.000000
vt 0.092173 -0.331822 0.000000
vt -0.036869 0.331822 0.000000
vt 0.092173 0.331822 0.000000
vt -0.036869 -0.036869 0.000000
vt 0.092173 -0.036869 0.000000
vt -0.036869 0.092173 0.000000
vt 0.092173 0.092173 0.000000
vt 0.036869 0.331822 0.000000
vt -0.092173 0.331822 0.000000
vt 0.036869 -0.331822 0.000000
vt -0.092173 -0.331822 0.000000
vt -0.331822 -0.036869 0.000000
vt 0.331822 -0.036869 0.000000
vt -0.331822 0.092173 0.000000
vt 0.331822 0.092173 0.000000
vt 0.036869 0.092173 0.000000
vt -0.092173 0.092173 0.000000
vt 0.036869 -0.036869 0.000000
vt -0.092173 -0.036869 0.000000
vt 0.331822 0.036869 0.000000
vt -0.331822 0.036869 0.000000
vt 0.331822 -0.092173 0.000000
vt -0.331822 -0.092173 0.000000
vn 0.000000 0.000000 -0.100000
vn 0.000000 0.000000 -0.100000
vn 0.000000 0.000000 -0.100000
vn 0.000000 0.000000 -0.100000
vn -0.017365 -0.098481 0.000000
vn -0.017365 -0.098481 0.000000
vn -0.017365 -0.098481 0.000000
vn -0.017365 -0.098481 0.000000
vn 0.098481 -0.017365 0.000000
vn 0.098481 -0.017365 0.000000
vn 0.098481 -0.017365 0.000000
vn 0.098481 -0.017365 0.000000
vn 0.000000 0.000000 0.100000
vn 0.000000 0.000000 0.100000
vn 0.000000 0.000000 0.100000
vn 0.000000 0.000000 0.100000
vn 0.017365 0.098481 0.000000
vn 0.017365 0.098481 0.000000
vn 0.017365 0.098481 0.000000
vn 0.017365 0.098481 0.000000
vn -0.098481 0.017365 -0.000000
vn -0.098481 0.017365 -0.000000
vn -0.098481 0.017365 -0.000000
vn -0.098481 0.017365 -0.000000
#usemtl 钢_-_缎光
f 2/1/1 3/2/2 1/3/3
f 1/3/3 3/2/2 4/4/4
f 2/5/5 5/6/6 3/7/7
f 3/7/7 5/6/6 6/8/8
f 1/9/9 7/10/10 2/11/11
f 2/11/11 7/10/10 5/12/12
f 5/13/13 7/14/14 6/15/15
f 6/15/15 7/14/14 8/16/16
f 4/17/17 8/18/18 1/19/19
f 1/19/19 8/18/18 7/20/20
f 4/21/21 3/22/22 8/23/23
f 8/23/23 3/22/22 6/24/24
# 8 vertices
# 24 texture params
# 24 normals
# 12 facets

# 1 groups
