# WaveFront *.obj file (generated by Autodesk ATF)

#mtllib arm2.mtl

g 实体2

v 8.231768 11.382197 0.509075
v 8.230649 11.378022 0.429350
v 8.227306 11.365545 0.350559
v 8.221777 11.344913 0.273627
v 8.214128 11.316367 0.199456
v 8.204449 11.280243 0.128914
v 8.192852 11.236963 0.062829
v 8.179474 11.187035 0.001977
v 8.164472 11.131045 -0.052931
v 8.148021 11.069649 -0.101249
v 8.130314 11.003567 -0.142412
v 8.111559 10.933573 -0.175937
v 8.091976 10.860489 -0.201431
v 8.071795 10.785170 -0.218595
v 8.051251 10.708500 -0.227227
v 8.030586 10.631379 -0.227227
v 8.010043 10.554709 -0.218595
v 7.989861 10.479390 -0.201431
v 7.970278 10.406306 -0.175937
v 7.951524 10.336312 -0.142412
v 7.933817 10.270230 -0.101249
v 7.917366 10.208834 -0.052931
v 7.902363 10.152844 0.001977
v 7.888985 10.102916 0.062829
v 7.877389 10.059637 0.128914
v 7.867709 10.023512 0.199456
v 7.860060 9.994966 0.273627
v 7.854532 9.974334 0.350559
v 7.851189 9.961857 0.429350
v 7.850070 9.957682 0.509075
v 7.851189 9.961857 0.588800
v 7.854532 9.974334 0.667590
v 7.860060 9.994966 0.744522
v 7.867709 10.023512 0.818694
v 7.877389 10.059637 0.889236
v 7.888985 10.102916 0.955320
v 7.902363 10.152844 1.016173
v 7.917366 10.208834 1.071080
v 7.933817 10.270230 1.119399
v 7.951524 10.336312 1.160562
v 7.970278 10.406306 1.194087
v 7.989861 10.479390 1.219581
v 8.010043 10.554709 1.236744
v 8.030586 10.631379 1.245377
v 8.051251 10.708500 1.245377
v 8.071795 10.785170 1.236744
v 8.091976 10.860489 1.219581
v 8.111559 10.933573 1.194087
v 8.130314 11.003567 1.160562
v 8.148021 11.069649 1.119399
v 8.164472 11.131045 1.071080
v 8.179474 11.187035 1.016173
v 8.192852 11.236963 0.955320
v 8.204449 11.280243 0.889236
v 8.214128 11.316367 0.818694
v 8.221777 11.344913 0.744522
v 8.227306 11.365545 0.667590
v 8.230649 11.378022 0.588800
v 2.533707 12.908988 0.509075
v 2.532588 12.904813 0.588800
v 2.529245 12.892336 0.667590
v 2.523717 12.871704 0.744522
v 2.516068 12.843158 0.818694
v 2.506388 12.807033 0.889236
v 2.494791 12.763754 0.955320
v 2.481413 12.713826 1.016173
v 2.466411 12.657836 1.071080
v 2.449960 12.596440 1.119399
v 2.432253 12.530358 1.160562
v 2.413498 12.460364 1.194087
v 2.393915 12.387279 1.219581
v 2.373734 12.311961 1.236744
v 2.353190 12.235291 1.245377
v 2.332526 12.158169 1.245377
v 2.311982 12.081500 1.236744
v 2.291801 12.006181 1.219581
v 2.272218 11.933097 1.194087
v 2.253463 11.863103 1.160562
v 2.235756 11.797021 1.119399
v 2.219305 11.735625 1.071080
v 2.204303 11.679635 1.016173
v 2.190925 11.629707 0.955320
v 2.179328 11.586427 0.889236
v 2.169648 11.550303 0.818694
v 2.161999 11.521757 0.744522
v 2.156471 11.501125 0.667590
v 2.153128 11.488648 0.588800
v 2.152009 11.484473 0.509075
v 2.153128 11.488648 0.429350
v 2.156471 11.501125 0.350559
v 2.161999 11.521757 0.273627
v 2.169648 11.550303 0.199456
v 2.179328 11.586427 0.128914
v 2.190925 11.629707 0.062829
v 2.204303 11.679635 0.001977
v 2.219305 11.735625 -0.052931
v 2.235756 11.797021 -0.101249
v 2.253463 11.863103 -0.142412
v 2.272218 11.933097 -0.175937
v 2.291801 12.006181 -0.201431
v 2.311982 12.081500 -0.218595
v 2.332526 12.158169 -0.227227
v 2.353190 12.235291 -0.227227
v 2.373734 12.311961 -0.218595
v 2.393915 12.387279 -0.201431
v 2.413498 12.460364 -0.175937
v 2.432253 12.530358 -0.142412
v 2.449960 12.596440 -0.101249
v 2.466411 12.657836 -0.052931
v 2.481413 12.713826 0.001977
v 2.494791 12.763754 0.062829
v 2.506388 12.807033 0.128914
v 2.516068 12.843158 0.199456
v 2.523717 12.871704 0.273627
v 2.529245 12.892336 0.350559
v 2.532588 12.904813 0.429350
v 6.425555 10.339380 0.509075
v 5.001040 10.721077 0.509075
v 3.576524 11.102775 0.509075
v 6.806134 11.759720 0.429350
v 5.381618 12.141417 0.429350
v 3.957103 12.523115 0.429350
v 3.958222 12.527290 0.509075
v 5.382737 12.145593 0.509075
v 6.807252 11.763895 0.509075
v 6.802790 11.747243 0.350559
v 5.378275 12.128940 0.350559
v 3.953760 12.510638 0.350559
v 6.797262 11.726610 0.273627
v 5.372747 12.108308 0.273627
v 3.948232 12.490006 0.273627
v 6.789613 11.698065 0.199456
v 5.365098 12.079762 0.199456
v 3.940583 12.461460 0.199456
v 6.779934 11.661940 0.128914
v 5.355419 12.043638 0.128914
v 3.930903 12.425336 0.128914
v 6.768337 11.618661 0.062829
v 5.343822 12.000358 0.062829
v 3.919307 12.382056 0.062829
v 6.754959 11.568733 0.001977
v 5.330444 11.950431 0.001977
v 3.905929 12.332128 0.001977
v 6.739956 11.512743 -0.052931
v 5.315441 11.894441 -0.052931
v 3.890926 12.276138 -0.052931
v 6.723505 11.451347 -0.101249
v 5.298990 11.833045 -0.101249
v 3.874475 12.214742 -0.101249
v 6.705799 11.385265 -0.142412
v 5.281284 11.766962 -0.142412
v 3.856768 12.148660 -0.142412
v 6.687044 11.315271 -0.175937
v 5.262529 11.696969 -0.175937
v 3.838014 12.078666 -0.175937
v 6.667461 11.242186 -0.201431
v 5.242946 11.623884 -0.201431
v 3.818431 12.005582 -0.201431
v 6.647279 11.166868 -0.218595
v 5.222764 11.548565 -0.218595
v 3.798249 11.930263 -0.218595
v 6.626736 11.090198 -0.227227
v 5.202221 11.471896 -0.227227
v 3.777706 11.853593 -0.227227
v 6.606071 11.013076 -0.227227
v 5.181556 11.394774 -0.227227
v 3.757041 11.776472 -0.227227
v 6.585528 10.936407 -0.218595
v 5.161012 11.318104 -0.218595
v 3.736497 11.699802 -0.218595
v 6.565346 10.861088 -0.201431
v 5.140831 11.242786 -0.201431
v 3.716316 11.624484 -0.201431
v 6.545763 10.788004 -0.175937
v 5.121248 11.169701 -0.175937
v 3.696733 11.551399 -0.175937
v 6.527008 10.718010 -0.142412
v 5.102493 11.099707 -0.142412
v 3.677978 11.481405 -0.142412
v 6.509302 10.651928 -0.101249
v 5.084786 11.033625 -0.101249
v 3.660271 11.415323 -0.101249
v 6.492851 10.590531 -0.052931
v 5.068335 10.972229 -0.052931
v 3.643820 11.353927 -0.052931
v 6.477848 10.534541 0.001977
v 5.053333 10.916239 0.001977
v 3.628818 11.297937 0.001977
v 6.464470 10.484614 0.062829
v 5.039955 10.866312 0.062829
v 3.615440 11.248009 0.062829
v 6.452873 10.441334 0.128914
v 5.028358 10.823032 0.128914
v 3.603843 11.204730 0.128914
v 6.443194 10.405210 0.199456
v 5.018679 10.786907 0.199456
v 3.594163 11.168605 0.199456
v 6.435545 10.376664 0.273627
v 5.011030 10.758362 0.273627
v 3.586515 11.140059 0.273627
v 6.430017 10.356032 0.350559
v 5.005501 10.737730 0.350559
v 3.580986 11.119427 0.350559
v 6.426673 10.343555 0.429350
v 5.002158 10.725253 0.429350
v 3.577643 11.106950 0.429350
v 6.426673 10.343555 0.588800
v 5.002158 10.725253 0.588800
v 3.577643 11.106950 0.588800
v 6.430017 10.356032 0.667590
v 5.005501 10.737730 0.667590
v 3.580986 11.119427 0.667590
v 6.435545 10.376664 0.744522
v 5.011030 10.758362 0.744522
v 3.586515 11.140059 0.744522
v 6.443194 10.405210 0.818694
v 5.018679 10.786907 0.818694
v 3.594163 11.168605 0.818694
v 6.452873 10.441334 0.889236
v 5.028358 10.823032 0.889236
v 3.603843 11.204730 0.889236
v 6.464470 10.484614 0.955320
v 5.039955 10.866312 0.955320
v 3.615440 11.248009 0.955320
v 6.477848 10.534541 1.016173
v 5.053333 10.916239 1.016173
v 3.628818 11.297937 1.016173
v 6.492851 10.590531 1.071080
v 5.068335 10.972229 1.071080
v 3.643820 11.353927 1.071080
v 6.509302 10.651928 1.119399
v 5.084786 11.033625 1.119399
v 3.660271 11.415323 1.119399
v 6.527008 10.718010 1.160562
v 5.102493 11.099707 1.160562
v 3.677978 11.481405 1.160562
v 6.545763 10.788004 1.194087
v 5.121248 11.169701 1.194087
v 3.696733 11.551399 1.194087
v 6.565346 10.861088 1.219581
v 5.140831 11.242786 1.219581
v 3.716316 11.624484 1.219581
v 6.585528 10.936407 1.236744
v 5.161012 11.318104 1.236744
v 3.736497 11.699802 1.236744
v 6.606071 11.013076 1.245377
v 5.181556 11.394774 1.245377
v 3.757041 11.776472 1.245377
v 6.626736 11.090198 1.245377
v 5.202221 11.471896 1.245377
v 3.777706 11.853593 1.245377
v 6.647279 11.166868 1.236744
v 5.222764 11.548565 1.236744
v 3.798249 11.930263 1.236744
v 6.667461 11.242186 1.219581
v 5.242946 11.623884 1.219581
v 3.818431 12.005582 1.219581
v 6.687044 11.315271 1.194087
v 5.262529 11.696969 1.194087
v 3.838014 12.078666 1.194087
v 6.705799 11.385265 1.160562
v 5.281284 11.766962 1.160562
v 3.856768 12.148660 1.160562
v 6.723505 11.451347 1.119399
v 5.298990 11.833045 1.119399
v 3.874475 12.214742 1.119399
v 6.739956 11.512743 1.071080
v 5.315441 11.894441 1.071080
v 3.890926 12.276138 1.071080
v 6.754959 11.568733 1.016173
v 5.330444 11.950431 1.016173
v 3.905929 12.332128 1.016173
v 6.768337 11.618661 0.955320
v 5.343822 12.000358 0.955320
v 3.919307 12.382056 0.955320
v 6.779934 11.661940 0.889236
v 5.355419 12.043638 0.889236
v 3.930903 12.425336 0.889236
v 6.789613 11.698065 0.818694
v 5.365098 12.079762 0.818694
v 3.940583 12.461460 0.818694
v 6.797262 11.726610 0.744522
v 5.372747 12.108308 0.744522
v 3.948232 12.490006 0.744522
v 6.802790 11.747243 0.667590
v 5.378275 12.128940 0.667590
v 3.953760 12.510638 0.667590
v 6.806134 11.759720 0.588800
v 5.381618 12.141417 0.588800
v 3.957103 12.523115 0.588800
vt 0.294953 0.007988 0.000000
vt 0.147477 0.007988 0.000000
vt 0.294953 -0.000000 0.000000
vt 0.147477 -0.000000 0.000000
vt 0.294953 -0.007988 0.000000
vt 0.147477 -0.007988 0.000000
vt 0.294953 -0.015976 0.000000
vt 0.147477 -0.015976 0.000000
vt 0.294953 -0.023964 0.000000
vt 0.147477 -0.023964 0.000000
vt 0.294953 -0.031953 0.000000
vt 0.147477 -0.031953 0.000000
vt 0.294953 -0.039941 0.000000
vt 0.147477 -0.039941 0.000000
vt 0.294953 -0.047929 0.000000
vt 0.147477 -0.047929 0.000000
vt 0.294953 -0.055917 0.000000
vt 0.147477 -0.055917 0.000000
vt 0.294953 -0.063905 0.000000
vt 0.147477 -0.063905 0.000000
vt 0.294953 -0.071893 0.000000
vt 0.147477 -0.071893 0.000000
vt 0.294953 -0.079881 0.000000
vt 0.147477 -0.079881 0.000000
vt 0.294953 -0.087869 0.000000
vt 0.147477 -0.087869 0.000000
vt 0.294953 -0.095858 0.000000
vt 0.147477 -0.095858 0.000000
vt 0.294953 -0.103846 0.000000
vt 0.147477 -0.103846 0.000000
vt 0.294953 -0.111834 0.000000
vt 0.147477 -0.111834 0.000000
vt 0.294953 -0.119822 0.000000
vt 0.147477 -0.119822 0.000000
vt 0.294953 -0.127810 0.000000
vt 0.147477 -0.127810 0.000000
vt 0.294953 -0.135798 0.000000
vt 0.147477 -0.135798 0.000000
vt 0.294953 -0.143786 0.000000
vt 0.147477 -0.143786 0.000000
vt 0.294953 -0.151774 0.000000
vt 0.147477 -0.151774 0.000000
vt 0.294953 -0.159763 0.000000
vt 0.147477 -0.159763 0.000000
vt 0.294953 -0.167751 0.000000
vt 0.147477 -0.167751 0.000000
vt 0.294953 -0.175739 0.000000
vt 0.147477 -0.175739 0.000000
vt 0.294953 -0.183727 0.000000
vt 0.147477 -0.183727 0.000000
vt 0.294953 -0.191715 0.000000
vt 0.147477 -0.191715 0.000000
vt 0.294953 -0.199703 0.000000
vt 0.147477 -0.199703 0.000000
vt 0.294953 -0.207691 0.000000
vt 0.147477 -0.207691 0.000000
vt 0.294953 -0.215680 0.000000
vt 0.147477 -0.215680 0.000000
vt 0.294953 -0.223668 0.000000
vt 0.147477 -0.223668 0.000000
vt 0.294953 -0.231656 0.000000
vt 0.147477 -0.231656 0.000000
vt 0.294953 0.231656 0.000000
vt 0.147477 0.231656 0.000000
vt 0.294953 0.223668 0.000000
vt 0.147477 0.223668 0.000000
vt 0.294953 0.215680 0.000000
vt 0.147477 0.215680 0.000000
vt 0.294953 0.207691 0.000000
vt 0.147477 0.207691 0.000000
vt 0.294953 0.199703 0.000000
vt 0.147477 0.199703 0.000000
vt 0.294953 0.191715 0.000000
vt 0.147477 0.191715 0.000000
vt 0.294953 0.183727 0.000000
vt 0.147477 0.183727 0.000000
vt 0.294953 0.175739 0.000000
vt 0.147477 0.175739 0.000000
vt 0.294953 0.167751 0.000000
vt 0.147477 0.167751 0.000000
vt 0.294953 0.159763 0.000000
vt 0.147477 0.159763 0.000000
vt 0.294953 0.151774 0.000000
vt 0.147477 0.151774 0.000000
vt 0.294953 0.143786 0.000000
vt 0.147477 0.143786 0.000000
vt 0.294953 0.135798 0.000000
vt 0.147477 0.135798 0.000000
vt 0.294953 0.127810 0.000000
vt 0.147477 0.127810 0.000000
vt 0.294953 0.119822 0.000000
vt 0.147477 0.119822 0.000000
vt 0.294953 0.111834 0.000000
vt 0.147477 0.111834 0.000000
vt 0.294953 0.103846 0.000000
vt 0.147477 0.103846 0.000000
vt 0.294953 0.095858 0.000000
vt 0.147477 0.095858 0.000000
vt 0.294953 0.087869 0.000000
vt 0.147477 0.087869 0.000000
vt 0.294953 0.079881 0.000000
vt 0.147477 0.079881 0.000000
vt 0.294953 0.071893 0.000000
vt 0.147477 0.071893 0.000000
vt 0.294953 0.063905 0.000000
vt 0.147477 0.063905 0.000000
vt 0.294953 0.055917 0.000000
vt 0.147477 0.055917 0.000000
vt 0.294953 0.047929 0.000000
vt 0.147477 0.047929 0.000000
vt 0.294953 0.039941 0.000000
vt 0.147477 0.039941 0.000000
vt 0.294953 0.031953 0.000000
vt 0.147477 0.031953 0.000000
vt 0.294953 0.023964 0.000000
vt 0.147477 0.023964 0.000000
vt 0.294953 0.015976 0.000000
vt 0.147477 0.015976 0.000000
vt -0.294953 -0.007988 0.000000
vt -0.147477 -0.007988 0.000000
vt -0.294953 -0.000000 0.000000
vt -0.147477 -0.000000 0.000000
vt -0.294953 0.007988 0.000000
vt -0.147477 0.007988 0.000000
vt -0.294953 0.015976 0.000000
vt -0.147477 0.015976 0.000000
vt -0.294953 0.023964 0.000000
vt -0.147477 0.023964 0.000000
vt -0.294953 0.031953 0.000000
vt -0.147477 0.031953 0.000000
vt -0.294953 0.039941 0.000000
vt -0.147477 0.039941 0.000000
vt -0.294953 0.047929 0.000000
vt -0.147477 0.047929 0.000000
vt -0.294953 0.055917 0.000000
vt -0.147477 0.055917 0.000000
vt -0.294953 0.063905 0.000000
vt -0.147477 0.063905 0.000000
vt -0.294953 0.071893 0.000000
vt -0.147477 0.071893 0.000000
vt -0.294953 0.079881 0.000000
vt -0.147477 0.079881 0.000000
vt -0.294953 0.087869 0.000000
vt -0.147477 0.087869 0.000000
vt -0.294953 0.095858 0.000000
vt -0.147477 0.095858 0.000000
vt -0.294953 0.103846 0.000000
vt -0.147477 0.103846 0.000000
vt -0.294953 0.111834 0.000000
vt -0.147477 0.111834 0.000000
vt -0.294953 0.119822 0.000000
vt -0.147477 0.119822 0.000000
vt -0.294953 0.127810 0.000000
vt -0.147477 0.127810 0.000000
vt -0.294953 0.135798 0.000000
vt -0.147477 0.135798 0.000000
vt -0.294953 0.143786 0.000000
vt -0.147477 0.143786 0.000000
vt -0.294953 0.151774 0.000000
vt -0.147477 0.151774 0.000000
vt -0.294953 0.159763 0.000000
vt -0.147477 0.159763 0.000000
vt -0.294953 0.167751 0.000000
vt -0.147477 0.167751 0.000000
vt -0.294953 0.175739 0.000000
vt -0.147477 0.175739 0.000000
vt -0.294953 0.183727 0.000000
vt -0.147477 0.183727 0.000000
vt -0.294953 0.191715 0.000000
vt -0.147477 0.191715 0.000000
vt -0.294953 0.199703 0.000000
vt -0.147477 0.199703 0.000000
vt -0.294953 0.207691 0.000000
vt -0.147477 0.207691 0.000000
vt -0.294953 0.215680 0.000000
vt -0.147477 0.215680 0.000000
vt -0.294953 0.223668 0.000000
vt -0.147477 0.223668 0.000000
vt -0.294953 0.231656 0.000000
vt -0.147477 0.231656 0.000000
vt -0.294953 -0.231656 0.000000
vt -0.147477 -0.231656 0.000000
vt -0.294953 -0.223668 0.000000
vt -0.147477 -0.223668 0.000000
vt -0.294953 -0.215680 0.000000
vt -0.147477 -0.215680 0.000000
vt -0.294953 -0.207691 0.000000
vt -0.147477 -0.207691 0.000000
vt -0.294953 -0.199703 0.000000
vt -0.147477 -0.199703 0.000000
vt -0.294953 -0.191715 0.000000
vt -0.147477 -0.191715 0.000000
vt -0.294953 -0.183727 0.000000
vt -0.147477 -0.183727 0.000000
vt -0.294953 -0.175739 0.000000
vt -0.147477 -0.175739 0.000000
vt -0.294953 -0.167751 0.000000
vt -0.147477 -0.167751 0.000000
vt -0.294953 -0.159763 0.000000
vt -0.147477 -0.159763 0.000000
vt -0.294953 -0.151774 0.000000
vt -0.147477 -0.151774 0.000000
vt -0.294953 -0.143786 0.000000
vt -0.147477 -0.143786 0.000000
vt -0.294953 -0.135798 0.000000
vt -0.147477 -0.135798 0.000000
vt -0.294953 -0.127810 0.000000
vt -0.147477 -0.127810 0.000000
vt -0.294953 -0.119822 0.000000
vt -0.147477 -0.119822 0.000000
vt -0.294953 -0.111834 0.000000
vt -0.147477 -0.111834 0.000000
vt -0.294953 -0.103846 0.000000
vt -0.147477 -0.103846 0.000000
vt -0.294953 -0.095858 0.000000
vt -0.147477 -0.095858 0.000000
vt -0.294953 -0.087869 0.000000
vt -0.147477 -0.087869 0.000000
vt -0.294953 -0.079881 0.000000
vt -0.147477 -0.079881 0.000000
vt -0.294953 -0.071893 0.000000
vt -0.147477 -0.071893 0.000000
vt -0.294953 -0.063905 0.000000
vt -0.147477 -0.063905 0.000000
vt -0.294953 -0.055917 0.000000
vt -0.147477 -0.055917 0.000000
vt -0.294953 -0.047929 0.000000
vt -0.147477 -0.047929 0.000000
vt -0.294953 -0.039941 0.000000
vt -0.147477 -0.039941 0.000000
vt -0.294953 -0.031953 0.000000
vt -0.147477 -0.031953 0.000000
vt -0.294953 -0.023964 0.000000
vt -0.147477 -0.023964 0.000000
vt -0.294953 -0.015976 0.000000
vt -0.147477 -0.015976 0.000000
vt 0.000000 0.231656 0.000000
vt 0.000000 0.223668 0.000000
vt 0.000000 0.215680 0.000000
vt 0.000000 0.207691 0.000000
vt 0.000000 0.199703 0.000000
vt 0.000000 0.191715 0.000000
vt 0.000000 0.183727 0.000000
vt 0.000000 0.175739 0.000000
vt 0.000000 0.167751 0.000000
vt 0.000000 0.159763 0.000000
vt 0.000000 0.151774 0.000000
vt 0.000000 0.143786 0.000000
vt 0.000000 0.135798 0.000000
vt 0.000000 0.127810 0.000000
vt 0.000000 0.119822 0.000000
vt 0.000000 0.111834 0.000000
vt 0.000000 0.103846 0.000000
vt 0.000000 0.095858 0.000000
vt 0.000000 0.087869 0.000000
vt 0.000000 0.079881 0.000000
vt 0.000000 0.071893 0.000000
vt 0.000000 0.063905 0.000000
vt 0.000000 0.055917 0.000000
vt 0.000000 0.047929 0.000000
vt 0.000000 0.039941 0.000000
vt 0.000000 0.031953 0.000000
vt 0.000000 0.023964 0.000000
vt 0.000000 0.015976 0.000000
vt 0.000000 0.007988 0.000000
vt 0.000000 -0.000000 0.000000
vt 0.000000 -0.007988 0.000000
vt 0.000000 -0.015976 0.000000
vt 0.000000 -0.023964 0.000000
vt 0.000000 -0.031953 0.000000
vt 0.000000 -0.039941 0.000000
vt 0.000000 -0.047929 0.000000
vt 0.000000 -0.055917 0.000000
vt 0.000000 -0.063905 0.000000
vt 0.000000 -0.071893 0.000000
vt 0.000000 -0.079881 0.000000
vt 0.000000 -0.087869 0.000000
vt 0.000000 -0.095858 0.000000
vt 0.000000 -0.103846 0.000000
vt 0.000000 -0.111834 0.000000
vt 0.000000 -0.119822 0.000000
vt 0.000000 -0.127810 0.000000
vt 0.000000 -0.135798 0.000000
vt 0.000000 -0.143786 0.000000
vt 0.000000 -0.151774 0.000000
vt 0.000000 -0.159763 0.000000
vt 0.000000 -0.167751 0.000000
vt 0.000000 -0.175739 0.000000
vt 0.000000 -0.183727 0.000000
vt 0.000000 -0.191715 0.000000
vt 0.000000 -0.199703 0.000000
vt 0.000000 -0.207691 0.000000
vt 0.000000 -0.215680 0.000000
vt 0.000000 -0.223668 0.000000
vt 0.000000 -0.231656 0.000000
vt -0.073306 -0.007973 0.000000
vt 0.073306 -0.007973 0.000000
vt -0.073738 0.000000 0.000000
vt 0.073738 -0.000000 0.000000
vt -0.073306 0.007973 0.000000
vt 0.073306 0.007973 0.000000
vt -0.072014 0.015852 0.000000
vt 0.072014 0.015852 0.000000
vt -0.069878 0.023545 0.000000
vt 0.069878 0.023545 0.000000
vt -0.066923 0.030962 0.000000
vt 0.066923 0.030962 0.000000
vt -0.063183 0.038016 0.000000
vt 0.063183 0.038016 0.000000
vt -0.058703 0.044625 0.000000
vt 0.058703 0.044625 0.000000
vt -0.053534 0.050710 0.000000
vt 0.053534 0.050710 0.000000
vt -0.047737 0.056201 0.000000
vt 0.047737 0.056201 0.000000
vt -0.041381 0.061032 0.000000
vt 0.041381 0.061032 0.000000
vt -0.034540 0.065149 0.000000
vt 0.034540 0.065149 0.000000
vt -0.027293 0.068501 0.000000
vt 0.027293 0.068501 0.000000
vt -0.019727 0.071051 0.000000
vt 0.019727 0.071051 0.000000
vt -0.011930 0.072767 0.000000
vt 0.011930 0.072767 0.000000
vt -0.003992 0.073630 0.000000
vt 0.003992 0.073630 0.000000
vt 0.072014 -0.015852 0.000000
vt -0.072014 -0.015852 0.000000
vt 0.069878 -0.023545 0.000000
vt -0.069878 -0.023545 0.000000
vt 0.066923 -0.030962 0.000000
vt -0.066923 -0.030962 0.000000
vt 0.063183 -0.038016 0.000000
vt -0.063183 -0.038016 0.000000
vt 0.058703 -0.044625 0.000000
vt -0.058703 -0.044625 0.000000
vt 0.053534 -0.050710 0.000000
vt -0.053534 -0.050710 0.000000
vt 0.047737 -0.056201 0.000000
vt -0.047737 -0.056201 0.000000
vt 0.041381 -0.061032 0.000000
vt -0.041381 -0.061032 0.000000
vt 0.034540 -0.065149 0.000000
vt -0.034540 -0.065149 0.000000
vt 0.027293 -0.068501 0.000000
vt -0.027293 -0.068501 0.000000
vt 0.019727 -0.071051 0.000000
vt -0.019727 -0.071051 0.000000
vt 0.011930 -0.072767 0.000000
vt -0.011930 -0.072767 0.000000
vt 0.003992 -0.073630 0.000000
vt -0.003992 -0.073630 0.000000
vt 0.073306 0.007973 0.000000
vt -0.073306 0.007973 0.000000
vt 0.073738 -0.000000 0.000000
vt -0.073738 0.000000 0.000000
vt 0.073306 -0.007973 0.000000
vt -0.073306 -0.007973 0.000000
vt 0.072014 -0.015852 0.000000
vt -0.072014 -0.015852 0.000000
vt 0.069878 -0.023545 0.000000
vt -0.069878 -0.023545 0.000000
vt 0.066923 -0.030962 0.000000
vt -0.066923 -0.030962 0.000000
vt 0.063183 -0.038016 0.000000
vt -0.063183 -0.038016 0.000000
vt 0.058703 -0.044625 0.000000
vt -0.058703 -0.044625 0.000000
vt 0.053534 -0.050710 0.000000
vt -0.053534 -0.050710 0.000000
vt 0.047737 -0.056201 0.000000
vt -0.047737 -0.056201 0.000000
vt 0.041381 -0.061032 0.000000
vt -0.041381 -0.061032 0.000000
vt 0.034540 -0.065149 0.000000
vt -0.034540 -0.065149 0.000000
vt 0.027293 -0.068501 0.000000
vt -0.027293 -0.068501 0.000000
vt 0.019727 -0.071051 0.000000
vt -0.019727 -0.071051 0.000000
vt 0.011930 -0.072767 0.000000
vt -0.011930 -0.072767 0.000000
vt 0.003992 -0.073630 0.000000
vt -0.003992 -0.073630 0.000000
vt -0.072014 0.015852 0.000000
vt 0.072014 0.015852 0.000000
vt -0.069878 0.023545 0.000000
vt 0.069878 0.023545 0.000000
vt -0.066923 0.030962 0.000000
vt 0.066923 0.030962 0.000000
vt -0.063183 0.038016 0.000000
vt 0.063183 0.038016 0.000000
vt -0.058703 0.044625 0.000000
vt 0.058703 0.044625 0.000000
vt -0.053534 0.050710 0.000000
vt 0.053534 0.050710 0.000000
vt -0.047737 0.056201 0.000000
vt 0.047737 0.056201 0.000000
vt -0.041381 0.061032 0.000000
vt 0.041381 0.061032 0.000000
vt -0.034540 0.065149 0.000000
vt 0.034540 0.065149 0.000000
vt -0.027293 0.068501 0.000000
vt 0.027293 0.068501 0.000000
vt -0.019727 0.071051 0.000000
vt 0.019727 0.071051 0.000000
vt -0.011930 0.072767 0.000000
vt 0.011930 0.072767 0.000000
vt -0.003992 0.073630 0.000000
vt 0.003992 0.073630 0.000000
vn 0.025730 0.096026 -0.010812
vn 0.025730 0.096026 -0.010812
vn 0.025882 0.096593 0.000000
vn 0.025882 0.096593 0.000000
vn 0.025730 0.096026 0.010812
vn 0.025730 0.096026 0.010812
vn 0.025277 0.094334 0.021497
vn 0.025277 0.094334 0.021497
vn 0.024527 0.091536 0.031930
vn 0.024527 0.091536 0.031930
vn 0.023490 0.087665 0.041989
vn 0.023490 0.087665 0.041989
vn 0.022177 0.082766 0.051555
vn 0.022177 0.082766 0.051555
vn 0.020604 0.076897 0.060517
vn 0.020604 0.076897 0.060517
vn 0.018790 0.070126 0.068770
vn 0.018790 0.070126 0.068770
vn 0.016756 0.062533 0.076216
vn 0.016756 0.062533 0.076216
vn 0.014525 0.054207 0.082769
vn 0.014525 0.054207 0.082769
vn 0.012123 0.045245 0.088351
vn 0.012123 0.045245 0.088351
vn 0.009580 0.035753 0.092898
vn 0.009580 0.035753 0.092898
vn 0.006924 0.025841 0.096355
vn 0.006924 0.025841 0.096355
vn 0.004187 0.015627 0.098683
vn 0.004187 0.015627 0.098683
vn 0.001401 0.005229 0.099853
vn 0.001401 0.005229 0.099853
vn -0.001401 -0.005229 0.099853
vn -0.001401 -0.005229 0.099853
vn -0.004187 -0.015627 0.098683
vn -0.004187 -0.015627 0.098683
vn -0.006924 -0.025841 0.096355
vn -0.006924 -0.025841 0.096355
vn -0.009580 -0.035753 0.092898
vn -0.009580 -0.035753 0.092898
vn -0.012123 -0.045245 0.088351
vn -0.012123 -0.045245 0.088351
vn -0.014525 -0.054207 0.082769
vn -0.014525 -0.054207 0.082769
vn -0.016756 -0.062533 0.076216
vn -0.016756 -0.062533 0.076216
vn -0.018790 -0.070126 0.068770
vn -0.018790 -0.070126 0.068770
vn -0.020604 -0.076897 0.060517
vn -0.020604 -0.076897 0.060517
vn -0.022177 -0.082766 0.051555
vn -0.022177 -0.082766 0.051555
vn -0.023490 -0.087665 0.041989
vn -0.023490 -0.087665 0.041989
vn -0.024527 -0.091536 0.031930
vn -0.024527 -0.091536 0.031930
vn -0.025277 -0.094334 0.021497
vn -0.025277 -0.094334 0.021497
vn -0.025730 -0.096026 0.010812
vn -0.025730 -0.096026 0.010812
vn -0.025882 -0.096593 0.000000
vn -0.025882 -0.096593 0.000000
vn -0.025730 -0.096026 -0.010812
vn -0.025730 -0.096026 -0.010812
vn -0.025277 -0.094334 -0.021497
vn -0.025277 -0.094334 -0.021497
vn -0.024527 -0.091536 -0.031930
vn -0.024527 -0.091536 -0.031930
vn -0.023490 -0.087665 -0.041989
vn -0.023490 -0.087665 -0.041989
vn -0.022177 -0.082766 -0.051555
vn -0.022177 -0.082766 -0.051555
vn -0.020604 -0.076897 -0.060517
vn -0.020604 -0.076897 -0.060517
vn -0.018790 -0.070126 -0.068770
vn -0.018790 -0.070126 -0.068770
vn -0.016756 -0.062533 -0.076216
vn -0.016756 -0.062533 -0.076216
vn -0.014525 -0.054207 -0.082769
vn -0.014525 -0.054207 -0.082769
vn -0.012123 -0.045245 -0.088351
vn -0.012123 -0.045245 -0.088351
vn -0.009580 -0.035753 -0.092898
vn -0.009580 -0.035753 -0.092898
vn -0.006924 -0.025841 -0.096355
vn -0.006924 -0.025841 -0.096355
vn -0.004187 -0.015627 -0.098683
vn -0.004187 -0.015627 -0.098683
vn -0.001401 -0.005229 -0.099853
vn -0.001401 -0.005229 -0.099853
vn 0.001401 0.005229 -0.099853
vn 0.001401 0.005229 -0.099853
vn 0.004187 0.015627 -0.098683
vn 0.004187 0.015627 -0.098683
vn 0.006924 0.025841 -0.096355
vn 0.006924 0.025841 -0.096355
vn 0.009580 0.035753 -0.092898
vn 0.009580 0.035753 -0.092898
vn 0.012123 0.045245 -0.088351
vn 0.012123 0.045245 -0.088351
vn 0.014525 0.054207 -0.082769
vn 0.014525 0.054207 -0.082769
vn 0.016756 0.062533 -0.076216
vn 0.016756 0.062533 -0.076216
vn 0.018790 0.070126 -0.068770
vn 0.018790 0.070126 -0.068770
vn 0.020604 0.076897 -0.060517
vn 0.020604 0.076897 -0.060517
vn 0.022177 0.082766 -0.051555
vn 0.022177 0.082766 -0.051555
vn 0.023490 0.087665 -0.041989
vn 0.023490 0.087665 -0.041989
vn 0.024527 0.091536 -0.031930
vn 0.024527 0.091536 -0.031930
vn 0.025277 0.094334 -0.021497
vn 0.025277 0.094334 -0.021497
vn 0.025730 0.096026 0.010812
vn 0.025730 0.096026 0.010812
vn 0.025882 0.096593 0.000000
vn 0.025882 0.096593 0.000000
vn 0.025730 0.096026 -0.010812
vn 0.025730 0.096026 -0.010812
vn 0.025277 0.094334 -0.021497
vn 0.025277 0.094334 -0.021497
vn 0.024527 0.091536 -0.031930
vn 0.024527 0.091536 -0.031930
vn 0.023490 0.087665 -0.041989
vn 0.023490 0.087665 -0.041989
vn 0.022177 0.082766 -0.051555
vn 0.022177 0.082766 -0.051555
vn 0.020604 0.076897 -0.060517
vn 0.020604 0.076897 -0.060517
vn 0.018790 0.070126 -0.068770
vn 0.018790 0.070126 -0.068770
vn 0.016756 0.062533 -0.076216
vn 0.016756 0.062533 -0.076216
vn 0.014525 0.054207 -0.082769
vn 0.014525 0.054207 -0.082769
vn 0.012123 0.045245 -0.088351
vn 0.012123 0.045245 -0.088351
vn 0.009580 0.035753 -0.092898
vn 0.009580 0.035753 -0.092898
vn 0.006924 0.025841 -0.096355
vn 0.006924 0.025841 -0.096355
vn 0.004187 0.015627 -0.098683
vn 0.004187 0.015627 -0.098683
vn 0.001401 0.005229 -0.099853
vn 0.001401 0.005229 -0.099853
vn -0.001401 -0.005229 -0.099853
vn -0.001401 -0.005229 -0.099853
vn -0.004187 -0.015627 -0.098683
vn -0.004187 -0.015627 -0.098683
vn -0.006924 -0.025841 -0.096355
vn -0.006924 -0.025841 -0.096355
vn -0.009580 -0.035753 -0.092898
vn -0.009580 -0.035753 -0.092898
vn -0.012123 -0.045245 -0.088351
vn -0.012123 -0.045245 -0.088351
vn -0.014525 -0.054207 -0.082769
vn -0.014525 -0.054207 -0.082769
vn -0.016756 -0.062533 -0.076216
vn -0.016756 -0.062533 -0.076216
vn -0.018790 -0.070126 -0.068770
vn -0.018790 -0.070126 -0.068770
vn -0.020604 -0.076897 -0.060517
vn -0.020604 -0.076897 -0.060517
vn -0.022177 -0.082766 -0.051555
vn -0.022177 -0.082766 -0.051555
vn -0.023490 -0.087665 -0.041989
vn -0.023490 -0.087665 -0.041989
vn -0.024527 -0.091536 -0.031930
vn -0.024527 -0.091536 -0.031930
vn -0.025277 -0.094334 -0.021497
vn -0.025277 -0.094334 -0.021497
vn -0.025730 -0.096026 -0.010812
vn -0.025730 -0.096026 -0.010812
vn -0.025882 -0.096593 0.000000
vn -0.025882 -0.096593 0.000000
vn -0.025730 -0.096026 0.010812
vn -0.025730 -0.096026 0.010812
vn -0.025277 -0.094334 0.021497
vn -0.025277 -0.094334 0.021497
vn -0.024527 -0.091536 0.031930
vn -0.024527 -0.091536 0.031930
vn -0.023490 -0.087665 0.041989
vn -0.023490 -0.087665 0.041989
vn -0.022177 -0.082766 0.051555
vn -0.022177 -0.082766 0.051555
vn -0.020604 -0.076897 0.060517
vn -0.020604 -0.076897 0.060517
vn -0.018790 -0.070126 0.068770
vn -0.018790 -0.070126 0.068770
vn -0.016756 -0.062533 0.076216
vn -0.016756 -0.062533 0.076216
vn -0.014525 -0.054207 0.082769
vn -0.014525 -0.054207 0.082769
vn -0.012123 -0.045245 0.088351
vn -0.012123 -0.045245 0.088351
vn -0.009580 -0.035753 0.092898
vn -0.009580 -0.035753 0.092898
vn -0.006924 -0.025841 0.096355
vn -0.006924 -0.025841 0.096355
vn -0.004187 -0.015627 0.098683
vn -0.004187 -0.015627 0.098683
vn -0.001401 -0.005229 0.099853
vn -0.001401 -0.005229 0.099853
vn 0.001401 0.005229 0.099853
vn 0.001401 0.005229 0.099853
vn 0.004187 0.015627 0.098683
vn 0.004187 0.015627 0.098683
vn 0.006924 0.025841 0.096355
vn 0.006924 0.025841 0.096355
vn 0.009580 0.035753 0.092898
vn 0.009580 0.035753 0.092898
vn 0.012123 0.045245 0.088351
vn 0.012123 0.045245 0.088351
vn 0.014525 0.054207 0.082769
vn 0.014525 0.054207 0.082769
vn 0.016756 0.062533 0.076216
vn 0.016756 0.062533 0.076216
vn 0.018790 0.070126 0.068770
vn 0.018790 0.070126 0.068770
vn 0.020604 0.076897 0.060517
vn 0.020604 0.076897 0.060517
vn 0.022177 0.082766 0.051555
vn 0.022177 0.082766 0.051555
vn 0.023490 0.087665 0.041989
vn 0.023490 0.087665 0.041989
vn 0.024527 0.091536 0.031930
vn 0.024527 0.091536 0.031930
vn 0.025277 0.094334 0.021497
vn 0.025277 0.094334 0.021497
vn -0.025882 -0.096593 0.000000
vn -0.025730 -0.096026 -0.010812
vn -0.025277 -0.094334 -0.021497
vn -0.024527 -0.091536 -0.031930
vn -0.023490 -0.087665 -0.041989
vn -0.022177 -0.082766 -0.051555
vn -0.020604 -0.076897 -0.060517
vn -0.018790 -0.070126 -0.068770
vn -0.016756 -0.062533 -0.076216
vn -0.014525 -0.054207 -0.082769
vn -0.012123 -0.045245 -0.088351
vn -0.009580 -0.035753 -0.092898
vn -0.006924 -0.025841 -0.096355
vn -0.004187 -0.015627 -0.098683
vn -0.001401 -0.005229 -0.099853
vn 0.001401 0.005229 -0.099853
vn 0.004187 0.015627 -0.098683
vn 0.006924 0.025841 -0.096355
vn 0.009580 0.035753 -0.092898
vn 0.012123 0.045245 -0.088351
vn 0.014525 0.054207 -0.082769
vn 0.016756 0.062533 -0.076216
vn 0.018790 0.070126 -0.068770
vn 0.020604 0.076897 -0.060517
vn 0.022177 0.082766 -0.051555
vn 0.023490 0.087665 -0.041989
vn 0.024527 0.091536 -0.031930
vn 0.025277 0.094334 -0.021497
vn 0.025730 0.096026 -0.010812
vn 0.025882 0.096593 0.000000
vn 0.025730 0.096026 0.010812
vn 0.025277 0.094334 0.021497
vn 0.024527 0.091536 0.031930
vn 0.023490 0.087665 0.041989
vn 0.022177 0.082766 0.051555
vn 0.020604 0.076897 0.060517
vn 0.018790 0.070126 0.068770
vn 0.016756 0.062533 0.076216
vn 0.014525 0.054207 0.082769
vn 0.012123 0.045245 0.088351
vn 0.009580 0.035753 0.092898
vn 0.006924 0.025841 0.096355
vn 0.004187 0.015627 0.098683
vn 0.001401 0.005229 0.099853
vn -0.001401 -0.005229 0.099853
vn -0.004187 -0.015627 0.098683
vn -0.006924 -0.025841 0.096355
vn -0.009580 -0.035753 0.092898
vn -0.012123 -0.045245 0.088351
vn -0.014525 -0.054207 0.082769
vn -0.016756 -0.062533 0.076216
vn -0.018790 -0.070126 0.068770
vn -0.020604 -0.076897 0.060517
vn -0.022177 -0.082766 0.051555
vn -0.023490 -0.087665 0.041989
vn -0.024527 -0.091536 0.031930
vn -0.025277 -0.094334 0.021497
vn -0.025730 -0.096026 0.010812
vn 0.096593 -0.025882 0.000000
vn 0.096593 -0.025882 0.000000
vn 0.096593 -0.025882 0.000000
vn 0.096593 -0.025882 0.000000
vn 0.096593 -0.025882 0.000000
vn 0.096593 -0.025882 0.000000
vn 0.096593 -0.025882 0.000000
vn 0.096593 -0.025882 0.000000
vn 0.096593 -0.025882 0.000000
vn 0.096593 -0.025882 0.000000
vn 0.096593 -0.025882 0.000000
vn 0.096593 -0.025882 0.000000
vn 0.096593 -0.025882 0.000000
vn 0.096593 -0.025882 0.000000
vn 0.096593 -0.025882 0.000000
vn 0.096593 -0.025882 0.000000
vn 0.096593 -0.025882 0.000000
vn 0.096593 -0.025882 0.000000
vn 0.096593 -0.025882 0.000000
vn 0.096593 -0.025882 0.000000
vn 0.096593 -0.025882 0.000000
vn 0.096593 -0.025882 0.000000
vn 0.096593 -0.025882 0.000000
vn 0.096593 -0.025882 0.000000
vn 0.096593 -0.025882 0.000000
vn 0.096593 -0.025882 0.000000
vn 0.096593 -0.025882 0.000000
vn 0.096593 -0.025882 0.000000
vn 0.096593 -0.025882 0.000000
vn 0.096593 -0.025882 0.000000
vn 0.096593 -0.025882 0.000000
vn 0.096593 -0.025882 0.000000
vn 0.096593 -0.025882 0.000000
vn 0.096593 -0.025882 0.000000
vn 0.096593 -0.025882 0.000000
vn 0.096593 -0.025882 0.000000
vn 0.096593 -0.025882 0.000000
vn 0.096593 -0.025882 0.000000
vn 0.096593 -0.025882 0.000000
vn 0.096593 -0.025882 0.000000
vn 0.096593 -0.025882 0.000000
vn 0.096593 -0.025882 0.000000
vn 0.096593 -0.025882 0.000000
vn 0.096593 -0.025882 0.000000
vn 0.096593 -0.025882 0.000000
vn 0.096593 -0.025882 0.000000
vn 0.096593 -0.025882 0.000000
vn 0.096593 -0.025882 0.000000
vn 0.096593 -0.025882 0.000000
vn 0.096593 -0.025882 0.000000
vn 0.096593 -0.025882 0.000000
vn 0.096593 -0.025882 0.000000
vn 0.096593 -0.025882 0.000000
vn 0.096593 -0.025882 0.000000
vn 0.096593 -0.025882 0.000000
vn 0.096593 -0.025882 0.000000
vn 0.096593 -0.025882 0.000000
vn 0.096593 -0.025882 0.000000
vn -0.096593 0.025882 -0.000000
vn -0.096593 0.025882 -0.000000
vn -0.096593 0.025882 -0.000000
vn -0.096593 0.025882 -0.000000
vn -0.096593 0.025882 -0.000000
vn -0.096593 0.025882 -0.000000
vn -0.096593 0.025882 -0.000000
vn -0.096593 0.025882 -0.000000
vn -0.096593 0.025882 -0.000000
vn -0.096593 0.025882 -0.000000
vn -0.096593 0.025882 -0.000000
vn -0.096593 0.025882 -0.000000
vn -0.096593 0.025882 -0.000000
vn -0.096593 0.025882 -0.000000
vn -0.096593 0.025882 -0.000000
vn -0.096593 0.025882 -0.000000
vn -0.096593 0.025882 -0.000000
vn -0.096593 0.025882 -0.000000
vn -0.096593 0.025882 -0.000000
vn -0.096593 0.025882 -0.000000
vn -0.096593 0.025882 -0.000000
vn -0.096593 0.025882 -0.000000
vn -0.096593 0.025882 -0.000000
vn -0.096593 0.025882 -0.000000
vn -0.096593 0.025882 -0.000000
vn -0.096593 0.025882 -0.000000
vn -0.096593 0.025882 -0.000000
vn -0.096593 0.025882 -0.000000
vn -0.096593 0.025882 -0.000000
vn -0.096593 0.025882 -0.000000
vn -0.096593 0.025882 -0.000000
vn -0.096593 0.025882 -0.000000
vn -0.096593 0.025882 -0.000000
vn -0.096593 0.025882 -0.000000
vn -0.096593 0.025882 -0.000000
vn -0.096593 0.025882 -0.000000
vn -0.096593 0.025882 -0.000000
vn -0.096593 0.025882 -0.000000
vn -0.096593 0.025882 -0.000000
vn -0.096593 0.025882 -0.000000
vn -0.096593 0.025882 -0.000000
vn -0.096593 0.025882 -0.000000
vn -0.096593 0.025882 -0.000000
vn -0.096593 0.025882 -0.000000
vn -0.096593 0.025882 -0.000000
vn -0.096593 0.025882 -0.000000
vn -0.096593 0.025882 -0.000000
vn -0.096593 0.025882 -0.000000
vn -0.096593 0.025882 -0.000000
vn -0.096593 0.025882 -0.000000
vn -0.096593 0.025882 -0.000000
vn -0.096593 0.025882 -0.000000
vn -0.096593 0.025882 -0.000000
vn -0.096593 0.025882 -0.000000
vn -0.096593 0.025882 -0.000000
vn -0.096593 0.025882 -0.000000
vn -0.096593 0.025882 -0.000000
vn -0.096593 0.025882 -0.000000
#usemtl 钢_-_缎光
f 2/1/1 120/2/2 1/3/3
f 1/3/3 120/2/2 125/4/4
f 1/3/3 125/4/4 58/5/5
f 58/5/5 125/4/4 288/6/6
f 58/5/5 288/6/6 57/7/7
f 57/7/7 288/6/6 285/8/8
f 57/7/7 285/8/8 56/9/9
f 56/9/9 285/8/8 282/10/10
f 56/9/9 282/10/10 55/11/11
f 55/11/11 282/10/10 279/12/12
f 55/11/11 279/12/12 54/13/13
f 54/13/13 279/12/12 276/14/14
f 54/13/13 276/14/14 53/15/15
f 53/15/15 276/14/14 273/16/16
f 53/15/15 273/16/16 52/17/17
f 52/17/17 273/16/16 270/18/18
f 52/17/17 270/18/18 51/19/19
f 51/19/19 270/18/18 267/20/20
f 51/19/19 267/20/20 50/21/21
f 50/21/21 267/20/20 264/22/22
f 50/21/21 264/22/22 49/23/23
f 49/23/23 264/22/22 261/24/24
f 49/23/23 261/24/24 48/25/25
f 48/25/25 261/24/24 258/26/26
f 48/25/25 258/26/26 47/27/27
f 47/27/27 258/26/26 255/28/28
f 47/27/27 255/28/28 46/29/29
f 46/29/29 255/28/28 252/30/30
f 46/29/29 252/30/30 45/31/31
f 45/31/31 252/30/30 249/32/32
f 45/31/31 249/32/32 44/33/33
f 44/33/33 249/32/32 246/34/34
f 44/33/33 246/34/34 43/35/35
f 43/35/35 246/34/34 243/36/36
f 43/35/35 243/36/36 42/37/37
f 42/37/37 243/36/36 240/38/38
f 42/37/37 240/38/38 41/39/39
f 41/39/39 240/38/38 237/40/40
f 41/39/39 237/40/40 40/41/41
f 40/41/41 237/40/40 234/42/42
f 40/41/41 234/42/42 39/43/43
f 39/43/43 234/42/42 231/44/44
f 39/43/43 231/44/44 38/45/45
f 38/45/45 231/44/44 228/46/46
f 38/45/45 228/46/46 37/47/47
f 37/47/47 228/46/46 225/48/48
f 37/47/47 225/48/48 36/49/49
f 36/49/49 225/48/48 222/50/50
f 36/49/49 222/50/50 35/51/51
f 35/51/51 222/50/50 219/52/52
f 35/51/51 219/52/52 34/53/53
f 34/53/53 219/52/52 216/54/54
f 34/53/53 216/54/54 33/55/55
f 33/55/55 216/54/54 213/56/56
f 33/55/55 213/56/56 32/57/57
f 32/57/57 213/56/56 210/58/58
f 32/57/57 210/58/58 31/59/59
f 31/59/59 210/58/58 207/60/60
f 31/59/59 207/60/60 30/61/61
f 30/61/61 207/60/60 117/62/62
f 30/63/61 117/64/62 29/65/63
f 29/65/63 117/64/62 204/66/64
f 29/65/63 204/66/64 28/67/65
f 28/67/65 204/66/64 201/68/66
f 28/67/65 201/68/66 27/69/67
f 27/69/67 201/68/66 198/70/68
f 27/69/67 198/70/68 26/71/69
f 26/71/69 198/70/68 195/72/70
f 26/71/69 195/72/70 25/73/71
f 25/73/71 195/72/70 192/74/72
f 25/73/71 192/74/72 24/75/73
f 24/75/73 192/74/72 189/76/74
f 24/75/73 189/76/74 23/77/75
f 23/77/75 189/76/74 186/78/76
f 23/77/75 186/78/76 22/79/77
f 22/79/77 186/78/76 183/80/78
f 22/79/77 183/80/78 21/81/79
f 21/81/79 183/80/78 180/82/80
f 21/81/79 180/82/80 20/83/81
f 20/83/81 180/82/80 177/84/82
f 20/83/81 177/84/82 19/85/83
f 19/85/83 177/84/82 174/86/84
f 19/85/83 174/86/84 18/87/85
f 18/87/85 174/86/84 171/88/86
f 18/87/85 171/88/86 17/89/87
f 17/89/87 171/88/86 168/90/88
f 17/89/87 168/90/88 16/91/89
f 16/91/89 168/90/88 165/92/90
f 16/91/89 165/92/90 15/93/91
f 15/93/91 165/92/90 162/94/92
f 15/93/91 162/94/92 14/95/93
f 14/95/93 162/94/92 159/96/94
f 14/95/93 159/96/94 13/97/95
f 13/97/95 159/96/94 156/98/96
f 13/97/95 156/98/96 12/99/97
f 12/99/97 156/98/96 153/100/98
f 12/99/97 153/100/98 11/101/99
f 11/101/99 153/100/98 150/102/100
f 11/101/99 150/102/100 10/103/101
f 10/103/101 150/102/100 147/104/102
f 10/103/101 147/104/102 9/105/103
f 9/105/103 147/104/102 144/106/104
f 9/105/103 144/106/104 8/107/105
f 8/107/105 144/106/104 141/108/106
f 8/107/105 141/108/106 7/109/107
f 7/109/107 141/108/106 138/110/108
f 7/109/107 138/110/108 6/111/109
f 6/111/109 138/110/108 135/112/110
f 6/111/109 135/112/110 5/113/111
f 5/113/111 135/112/110 132/114/112
f 5/113/111 132/114/112 4/115/113
f 4/115/113 132/114/112 129/116/114
f 4/115/113 129/116/114 3/117/115
f 3/117/115 129/116/114 126/118/116
f 3/117/115 126/118/116 2/1/1
f 2/1/1 126/118/116 120/2/2
f 60/119/117 290/120/118 59/121/119
f 59/121/119 290/120/118 123/122/120
f 59/121/119 123/122/120 116/123/121
f 116/123/121 123/122/120 122/124/122
f 116/123/121 122/124/122 115/125/123
f 115/125/123 122/124/122 128/126/124
f 115/125/123 128/126/124 114/127/125
f 114/127/125 128/126/124 131/128/126
f 114/127/125 131/128/126 113/129/127
f 113/129/127 131/128/126 134/130/128
f 113/129/127 134/130/128 112/131/129
f 112/131/129 134/130/128 137/132/130
f 112/131/129 137/132/130 111/133/131
f 111/133/131 137/132/130 140/134/132
f 111/133/131 140/134/132 110/135/133
f 110/135/133 140/134/132 143/136/134
f 110/135/133 143/136/134 109/137/135
f 109/137/135 143/136/134 146/138/136
f 109/137/135 146/138/136 108/139/137
f 108/139/137 146/138/136 149/140/138
f 108/139/137 149/140/138 107/141/139
f 107/141/139 149/140/138 152/142/140
f 107/141/139 152/142/140 106/143/141
f 106/143/141 152/142/140 155/144/142
f 106/143/141 155/144/142 105/145/143
f 105/145/143 155/144/142 158/146/144
f 105/145/143 158/146/144 104/147/145
f 104/147/145 158/146/144 161/148/146
f 104/147/145 161/148/146 103/149/147
f 103/149/147 161/148/146 164/150/148
f 103/149/147 164/150/148 102/151/149
f 102/151/149 164/150/148 167/152/150
f 102/151/149 167/152/150 101/153/151
f 101/153/151 167/152/150 170/154/152
f 101/153/151 170/154/152 100/155/153
f 100/155/153 170/154/152 173/156/154
f 100/155/153 173/156/154 99/157/155
f 99/157/155 173/156/154 176/158/156
f 99/157/155 176/158/156 98/159/157
f 98/159/157 176/158/156 179/160/158
f 98/159/157 179/160/158 97/161/159
f 97/161/159 179/160/158 182/162/160
f 97/161/159 182/162/160 96/163/161
f 96/163/161 182/162/160 185/164/162
f 96/163/161 185/164/162 95/165/163
f 95/165/163 185/164/162 188/166/164
f 95/165/163 188/166/164 94/167/165
f 94/167/165 188/166/164 191/168/166
f 94/167/165 191/168/166 93/169/167
f 93/169/167 191/168/166 194/170/168
f 93/169/167 194/170/168 92/171/169
f 92/171/169 194/170/168 197/172/170
f 92/171/169 197/172/170 91/173/171
f 91/173/171 197/172/170 200/174/172
f 91/173/171 200/174/172 90/175/173
f 90/175/173 200/174/172 203/176/174
f 90/175/173 203/176/174 89/177/175
f 89/177/175 203/176/174 206/178/176
f 89/177/175 206/178/176 88/179/177
f 88/179/177 206/178/176 119/180/178
f 88/181/177 119/182/178 87/183/179
f 87/183/179 119/182/178 209/184/180
f 87/183/179 209/184/180 86/185/181
f 86/185/181 209/184/180 212/186/182
f 86/185/181 212/186/182 85/187/183
f 85/187/183 212/186/182 215/188/184
f 85/187/183 215/188/184 84/189/185
f 84/189/185 215/188/184 218/190/186
f 84/189/185 218/190/186 83/191/187
f 83/191/187 218/190/186 221/192/188
f 83/191/187 221/192/188 82/193/189
f 82/193/189 221/192/188 224/194/190
f 82/193/189 224/194/190 81/195/191
f 81/195/191 224/194/190 227/196/192
f 81/195/191 227/196/192 80/197/193
f 80/197/193 227/196/192 230/198/194
f 80/197/193 230/198/194 79/199/195
f 79/199/195 230/198/194 233/200/196
f 79/199/195 233/200/196 78/201/197
f 78/201/197 233/200/196 236/202/198
f 78/201/197 236/202/198 77/203/199
f 77/203/199 236/202/198 239/204/200
f 77/203/199 239/204/200 76/205/201
f 76/205/201 239/204/200 242/206/202
f 76/205/201 242/206/202 75/207/203
f 75/207/203 242/206/202 245/208/204
f 75/207/203 245/208/204 74/209/205
f 74/209/205 245/208/204 248/210/206
f 74/209/205 248/210/206 73/211/207
f 73/211/207 248/210/206 251/212/208
f 73/211/207 251/212/208 72/213/209
f 72/213/209 251/212/208 254/214/210
f 72/213/209 254/214/210 71/215/211
f 71/215/211 254/214/210 257/216/212
f 71/215/211 257/216/212 70/217/213
f 70/217/213 257/216/212 260/218/214
f 70/217/213 260/218/214 69/219/215
f 69/219/215 260/218/214 263/220/216
f 69/219/215 263/220/216 68/221/217
f 68/221/217 263/220/216 266/222/218
f 68/221/217 266/222/218 67/223/219
f 67/223/219 266/222/218 269/224/220
f 67/223/219 269/224/220 66/225/221
f 66/225/221 269/224/220 272/226/222
f 66/225/221 272/226/222 65/227/223
f 65/227/223 272/226/222 275/228/224
f 65/227/223 275/228/224 64/229/225
f 64/229/225 275/228/224 278/230/226
f 64/229/225 278/230/226 63/231/227
f 63/231/227 278/230/226 281/232/228
f 63/231/227 281/232/228 62/233/229
f 62/233/229 281/232/228 284/234/230
f 62/233/229 284/234/230 61/235/231
f 61/235/231 284/234/230 287/236/232
f 61/235/231 287/236/232 60/119/117
f 60/119/117 287/236/232 290/120/118
f 117/64/62 118/237/233 204/66/64
f 204/66/64 118/237/233 205/238/234
f 204/66/64 205/238/234 201/68/66
f 201/68/66 205/238/234 202/239/235
f 201/68/66 202/239/235 198/70/68
f 198/70/68 202/239/235 199/240/236
f 198/70/68 199/240/236 195/72/70
f 195/72/70 199/240/236 196/241/237
f 195/72/70 196/241/237 192/74/72
f 192/74/72 196/241/237 193/242/238
f 192/74/72 193/242/238 189/76/74
f 189/76/74 193/242/238 190/243/239
f 189/76/74 190/243/239 186/78/76
f 186/78/76 190/243/239 187/244/240
f 186/78/76 187/244/240 183/80/78
f 183/80/78 187/244/240 184/245/241
f 183/80/78 184/245/241 180/82/80
f 180/82/80 184/245/241 181/246/242
f 180/82/80 181/246/242 177/84/82
f 177/84/82 181/246/242 178/247/243
f 177/84/82 178/247/243 174/86/84
f 174/86/84 178/247/243 175/248/244
f 174/86/84 175/248/244 171/88/86
f 171/88/86 175/248/244 172/249/245
f 171/88/86 172/249/245 168/90/88
f 168/90/88 172/249/245 169/250/246
f 168/90/88 169/250/246 165/92/90
f 165/92/90 169/250/246 166/251/247
f 165/92/90 166/251/247 162/94/92
f 162/94/92 166/251/247 163/252/248
f 162/94/92 163/252/248 159/96/94
f 159/96/94 163/252/248 160/253/249
f 159/96/94 160/253/249 156/98/96
f 156/98/96 160/253/249 157/254/250
f 156/98/96 157/254/250 153/100/98
f 153/100/98 157/254/250 154/255/251
f 153/100/98 154/255/251 150/102/100
f 150/102/100 154/255/251 151/256/252
f 150/102/100 151/256/252 147/104/102
f 147/104/102 151/256/252 148/257/253
f 147/104/102 148/257/253 144/106/104
f 144/106/104 148/257/253 145/258/254
f 144/106/104 145/258/254 141/108/106
f 141/108/106 145/258/254 142/259/255
f 141/108/106 142/259/255 138/110/108
f 138/110/108 142/259/255 139/260/256
f 138/110/108 139/260/256 135/112/110
f 135/112/110 139/260/256 136/261/257
f 135/112/110 136/261/257 132/114/112
f 132/114/112 136/261/257 133/262/258
f 132/114/112 133/262/258 129/116/114
f 129/116/114 133/262/258 130/263/259
f 129/116/114 130/263/259 126/118/116
f 126/118/116 130/263/259 127/264/260
f 126/118/116 127/264/260 120/2/2
f 120/2/2 127/264/260 121/265/261
f 120/2/2 121/265/261 125/4/4
f 125/4/4 121/265/261 124/266/262
f 125/4/4 124/266/262 288/6/6
f 288/6/6 124/266/262 289/267/263
f 288/6/6 289/267/263 285/8/8
f 285/8/8 289/267/263 286/268/264
f 285/8/8 286/268/264 282/10/10
f 282/10/10 286/268/264 283/269/265
f 282/10/10 283/269/265 279/12/12
f 279/12/12 283/269/265 280/270/266
f 279/12/12 280/270/266 276/14/14
f 276/14/14 280/270/266 277/271/267
f 276/14/14 277/271/267 273/16/16
f 273/16/16 277/271/267 274/272/268
f 273/16/16 274/272/268 270/18/18
f 270/18/18 274/272/268 271/273/269
f 270/18/18 271/273/269 267/20/20
f 267/20/20 271/273/269 268/274/270
f 267/20/20 268/274/270 264/22/22
f 264/22/22 268/274/270 265/275/271
f 264/22/22 265/275/271 261/24/24
f 261/24/24 265/275/271 262/276/272
f 261/24/24 262/276/272 258/26/26
f 258/26/26 262/276/272 259/277/273
f 258/26/26 259/277/273 255/28/28
f 255/28/28 259/277/273 256/278/274
f 255/28/28 256/278/274 252/30/30
f 252/30/30 256/278/274 253/279/275
f 252/30/30 253/279/275 249/32/32
f 249/32/32 253/279/275 250/280/276
f 249/32/32 250/280/276 246/34/34
f 246/34/34 250/280/276 247/281/277
f 246/34/34 247/281/277 243/36/36
f 243/36/36 247/281/277 244/282/278
f 243/36/36 244/282/278 240/38/38
f 240/38/38 244/282/278 241/283/279
f 240/38/38 241/283/279 237/40/40
f 237/40/40 241/283/279 238/284/280
f 237/40/40 238/284/280 234/42/42
f 234/42/42 238/284/280 235/285/281
f 234/42/42 235/285/281 231/44/44
f 231/44/44 235/285/281 232/286/282
f 231/44/44 232/286/282 228/46/46
f 228/46/46 232/286/282 229/287/283
f 228/46/46 229/287/283 225/48/48
f 225/48/48 229/287/283 226/288/284
f 225/48/48 226/288/284 222/50/50
f 222/50/50 226/288/284 223/289/285
f 222/50/50 223/289/285 219/52/52
f 219/52/52 223/289/285 220/290/286
f 219/52/52 220/290/286 216/54/54
f 216/54/54 220/290/286 217/291/287
f 216/54/54 217/291/287 213/56/56
f 213/56/56 217/291/287 214/292/288
f 213/56/56 214/292/288 210/58/58
f 210/58/58 214/292/288 211/293/289
f 210/58/58 211/293/289 207/60/60
f 207/60/60 211/293/289 208/294/290
f 207/60/60 208/294/290 117/62/62
f 117/62/62 208/294/290 118/295/233
f 118/237/233 119/180/178 205/238/234
f 205/238/234 119/180/178 206/178/176
f 205/238/234 206/178/176 202/239/235
f 202/239/235 206/178/176 203/176/174
f 202/239/235 203/176/174 199/240/236
f 199/240/236 203/176/174 200/174/172
f 199/240/236 200/174/172 196/241/237
f 196/241/237 200/174/172 197/172/170
f 196/241/237 197/172/170 193/242/238
f 193/242/238 197/172/170 194/170/168
f 193/242/238 194/170/168 190/243/239
f 190/243/239 194/170/168 191/168/166
f 190/243/239 191/168/166 187/244/240
f 187/244/240 191/168/166 188/166/164
f 187/244/240 188/166/164 184/245/241
f 184/245/241 188/166/164 185/164/162
f 184/245/241 185/164/162 181/246/242
f 181/246/242 185/164/162 182/162/160
f 181/246/242 182/162/160 178/247/243
f 178/247/243 182/162/160 179/160/158
f 178/247/243 179/160/158 175/248/244
f 175/248/244 179/160/158 176/158/156
f 175/248/244 176/158/156 172/249/245
f 172/249/245 176/158/156 173/156/154
f 172/249/245 173/156/154 169/250/246
f 169/250/246 173/156/154 170/154/152
f 169/250/246 170/154/152 166/251/247
f 166/251/247 170/154/152 167/152/150
f 166/251/247 167/152/150 163/252/248
f 163/252/248 167/152/150 164/150/148
f 163/252/248 164/150/148 160/253/249
f 160/253/249 164/150/148 161/148/146
f 160/253/249 161/148/146 157/254/250
f 157/254/250 161/148/146 158/146/144
f 157/254/250 158/146/144 154/255/251
f 154/255/251 158/146/144 155/144/142
f 154/255/251 155/144/142 151/256/252
f 151/256/252 155/144/142 152/142/140
f 151/256/252 152/142/140 148/257/253
f 148/257/253 152/142/140 149/140/138
f 148/257/253 149/140/138 145/258/254
f 145/258/254 149/140/138 146/138/136
f 145/258/254 146/138/136 142/259/255
f 142/259/255 146/138/136 143/136/134
f 142/259/255 143/136/134 139/260/256
f 139/260/256 143/136/134 140/134/132
f 139/260/256 140/134/132 136/261/257
f 136/261/257 140/134/132 137/132/130
f 136/261/257 137/132/130 133/262/258
f 133/262/258 137/132/130 134/130/128
f 133/262/258 134/130/128 130/263/259
f 130/263/259 134/130/128 131/128/126
f 130/263/259 131/128/126 127/264/260
f 127/264/260 131/128/126 128/126/124
f 127/264/260 128/126/124 121/265/261
f 121/265/261 128/126/124 122/124/122
f 121/265/261 122/124/122 124/266/262
f 124/266/262 122/124/122 123/122/120
f 124/266/262 123/122/120 289/267/263
f 289/267/263 123/122/120 290/120/118
f 289/267/263 290/120/118 286/268/264
f 286/268/264 290/120/118 287/236/232
f 286/268/264 287/236/232 283/269/265
f 283/269/265 287/236/232 284/234/230
f 283/269/265 284/234/230 280/270/266
f 280/270/266 284/234/230 281/232/228
f 280/270/266 281/232/228 277/271/267
f 277/271/267 281/232/228 278/230/226
f 277/271/267 278/230/226 274/272/268
f 274/272/268 278/230/226 275/228/224
f 274/272/268 275/228/224 271/273/269
f 271/273/269 275/228/224 272/226/222
f 271/273/269 272/226/222 268/274/270
f 268/274/270 272/226/222 269/224/220
f 268/274/270 269/224/220 265/275/271
f 265/275/271 269/224/220 266/222/218
f 265/275/271 266/222/218 262/276/272
f 262/276/272 266/222/218 263/220/216
f 262/276/272 263/220/216 259/277/273
f 259/277/273 263/220/216 260/218/214
f 259/277/273 260/218/214 256/278/274
f 256/278/274 260/218/214 257/216/212
f 256/278/274 257/216/212 253/279/275
f 253/279/275 257/216/212 254/214/210
f 253/279/275 254/214/210 250/280/276
f 250/280/276 254/214/210 251/212/208
f 250/280/276 251/212/208 247/281/277
f 247/281/277 251/212/208 248/210/206
f 247/281/277 248/210/206 244/282/278
f 244/282/278 248/210/206 245/208/204
f 244/282/278 245/208/204 241/283/279
f 241/283/279 245/208/204 242/206/202
f 241/283/279 242/206/202 238/284/280
f 238/284/280 242/206/202 239/204/200
f 238/284/280 239/204/200 235/285/281
f 235/285/281 239/204/200 236/202/198
f 235/285/281 236/202/198 232/286/282
f 232/286/282 236/202/198 233/200/196
f 232/286/282 233/200/196 229/287/283
f 229/287/283 233/200/196 230/198/194
f 229/287/283 230/198/194 226/288/284
f 226/288/284 230/198/194 227/196/192
f 226/288/284 227/196/192 223/289/285
f 223/289/285 227/196/192 224/194/190
f 223/289/285 224/194/190 220/290/286
f 220/290/286 224/194/190 221/192/188
f 220/290/286 221/192/188 217/291/287
f 217/291/287 221/192/188 218/190/186
f 217/291/287 218/190/186 214/292/288
f 214/292/288 218/190/186 215/188/184
f 214/292/288 215/188/184 211/293/289
f 211/293/289 215/188/184 212/186/182
f 211/293/289 212/186/182 208/294/290
f 208/294/290 212/186/182 209/184/180
f 208/294/290 209/184/180 118/295/233
f 118/295/233 209/184/180 119/182/178
f 58/296/291 31/297/292 1/298/293
f 1/298/293 31/297/292 30/299/294
f 1/298/293 30/299/294 2/300/295
f 2/300/295 30/299/294 29/301/296
f 2/300/295 29/301/296 3/302/297
f 3/302/297 29/301/296 28/303/298
f 3/302/297 28/303/298 4/304/299
f 4/304/299 28/303/298 27/305/300
f 4/304/299 27/305/300 5/306/301
f 5/306/301 27/305/300 26/307/302
f 5/306/301 26/307/302 6/308/303
f 6/308/303 26/307/302 25/309/304
f 6/308/303 25/309/304 7/310/305
f 7/310/305 25/309/304 24/311/306
f 7/310/305 24/311/306 8/312/307
f 8/312/307 24/311/306 23/313/308
f 8/312/307 23/313/308 9/314/309
f 9/314/309 23/313/308 22/315/310
f 9/314/309 22/315/310 10/316/311
f 10/316/311 22/315/310 21/317/312
f 10/316/311 21/317/312 11/318/313
f 11/318/313 21/317/312 20/319/314
f 11/318/313 20/319/314 12/320/315
f 12/320/315 20/319/314 19/321/316
f 12/320/315 19/321/316 13/322/317
f 13/322/317 19/321/316 18/323/318
f 13/322/317 18/323/318 14/324/319
f 14/324/319 18/323/318 17/325/320
f 14/324/319 17/325/320 15/326/321
f 15/326/321 17/325/320 16/327/322
f 31/297/292 58/296/291 32/328/323
f 32/328/323 58/296/291 57/329/324
f 32/328/323 57/329/324 33/330/325
f 33/330/325 57/329/324 56/331/326
f 33/330/325 56/331/326 34/332/327
f 34/332/327 56/331/326 55/333/328
f 34/332/327 55/333/328 35/334/329
f 35/334/329 55/333/328 54/335/330
f 35/334/329 54/335/330 36/336/331
f 36/336/331 54/335/330 53/337/332
f 36/336/331 53/337/332 37/338/333
f 37/338/333 53/337/332 52/339/334
f 37/338/333 52/339/334 38/340/335
f 38/340/335 52/339/334 51/341/336
f 38/340/335 51/341/336 39/342/337
f 39/342/337 51/341/336 50/343/338
f 39/342/337 50/343/338 40/344/339
f 40/344/339 50/343/338 49/345/340
f 40/344/339 49/345/340 41/346/341
f 41/346/341 49/345/340 48/347/342
f 41/346/341 48/347/342 42/348/343
f 42/348/343 48/347/342 47/349/344
f 42/348/343 47/349/344 43/350/345
f 43/350/345 47/349/344 46/351/346
f 43/350/345 46/351/346 44/352/347
f 44/352/347 46/351/346 45/353/348
f 116/354/349 89/355/350 59/356/351
f 59/356/351 89/355/350 88/357/352
f 59/356/351 88/357/352 60/358/353
f 60/358/353 88/357/352 87/359/354
f 60/358/353 87/359/354 61/360/355
f 61/360/355 87/359/354 86/361/356
f 61/360/355 86/361/356 62/362/357
f 62/362/357 86/361/356 85/363/358
f 62/362/357 85/363/358 63/364/359
f 63/364/359 85/363/358 84/365/360
f 63/364/359 84/365/360 64/366/361
f 64/366/361 84/365/360 83/367/362
f 64/366/361 83/367/362 65/368/363
f 65/368/363 83/367/362 82/369/364
f 65/368/363 82/369/364 66/370/365
f 66/370/365 82/369/364 81/371/366
f 66/370/365 81/371/366 67/372/367
f 67/372/367 81/371/366 80/373/368
f 67/372/367 80/373/368 68/374/369
f 68/374/369 80/373/368 79/375/370
f 68/374/369 79/375/370 69/376/371
f 69/376/371 79/375/370 78/377/372
f 69/376/371 78/377/372 70/378/373
f 70/378/373 78/377/372 77/379/374
f 70/378/373 77/379/374 71/380/375
f 71/380/375 77/379/374 76/381/376
f 71/380/375 76/381/376 72/382/377
f 72/382/377 76/381/376 75/383/378
f 72/382/377 75/383/378 73/384/379
f 73/384/379 75/383/378 74/385/380
f 89/355/350 116/354/349 90/386/381
f 90/386/381 116/354/349 115/387/382
f 90/386/381 115/387/382 91/388/383
f 91/388/383 115/387/382 114/389/384
f 91/388/383 114/389/384 92/390/385
f 92/390/385 114/389/384 113/391/386
f 92/390/385 113/391/386 93/392/387
f 93/392/387 113/391/386 112/393/388
f 93/392/387 112/393/388 94/394/389
f 94/394/389 112/393/388 111/395/390
f 94/394/389 111/395/390 95/396/391
f 95/396/391 111/395/390 110/397/392
f 95/396/391 110/397/392 96/398/393
f 96/398/393 110/397/392 109/399/394
f 96/398/393 109/399/394 97/400/395
f 97/400/395 109/399/394 108/401/396
f 97/400/395 108/401/396 98/402/397
f 98/402/397 108/401/396 107/403/398
f 98/402/397 107/403/398 99/404/399
f 99/404/399 107/403/398 106/405/400
f 99/404/399 106/405/400 100/406/401
f 100/406/401 106/405/400 105/407/402
f 100/406/401 105/407/402 101/408/403
f 101/408/403 105/407/402 104/409/404
f 101/408/403 104/409/404 102/410/405
f 102/410/405 104/409/404 103/411/406
# 290 vertices
# 411 texture params
# 406 normals
# 576 facets

# 1 groups
