# WaveFront *.obj file (generated by Autodesk ATF)

#mtllib base.mtl

g truncated tetrahedron

v 1.720897 4.739967 1.447030
v -1.755131 4.728392 1.443270
v 3.469181 2.415931 2.491559
v -0.013694 4.699805 -1.564915
v -3.482875 2.392783 2.484041
v 3.482875 0.051735 0.524144
v 1.741437 0.080322 3.532329
v -0.000001 2.335609 -3.532329
v -3.469182 0.028587 0.516626
v -1.734591 0.068748 3.528570
v 1.748283 0.011574 -2.487800
v -1.727744 -0.000000 -2.491559
#usemtl 钢_-_缎光
f 1 4 2
f 3 7 6
f 5 9 10
f 8 11 12
f 1 2 5
f 1 5 10
f 1 10 7
f 1 7 3
f 1 3 6
f 1 6 11
f 1 11 8
f 1 8 4
f 2 4 8
f 2 8 12
f 2 12 9
f 2 9 5
f 6 7 10
f 6 10 9
f 6 9 12
f 6 12 11
# 12 vertices
# 0 texture params
# 0 normals
# 20 facets

# 1 groups
