# Blender 4.3.2
# www.blender.org
mtllib texturedhead.mtl
o Model_Cylinder
v -0.124636 0.169022 -0.050753
v 0.003927 0.177031 -0.034949
v -0.110369 0.317506 -0.050329
v 0.017923 0.335645 -0.050011
v -0.125643 0.267456 -0.063214
v 0.026153 0.270483 -0.065076
v -0.045757 0.152032 -0.056326
v -0.048829 0.174599 -0.067131
v -0.034962 0.336958 -0.066742
v -0.043757 0.265741 -0.086158
v -0.114090 0.113103 -0.020092
v -0.113759 0.212795 -0.062657
v 0.018115 0.225413 -0.058662
v -0.057014 0.212006 -0.079330
v -0.129468 0.250223 -0.062612
v -0.133382 0.167242 -0.013053
v 0.017425 0.187707 -0.015511
v 0.022104 0.352811 -0.024823
v -0.088036 0.178809 -0.070827
v -0.071958 0.335099 -0.059382
v -0.085119 0.268286 -0.080911
v -0.090214 0.126498 -0.035322
v -0.096495 0.213037 -0.077092
v -0.122588 0.332997 -0.023726
v 0.055396 0.271038 -0.032801
v -0.144703 0.266999 -0.018697
v -0.120508 0.106802 -0.007952
v -0.035534 0.361021 -0.024353
v -0.127557 0.202791 -0.012779
v 0.041639 0.228052 -0.027932
v -0.137815 0.238930 -0.011173
v -0.075508 0.357233 -0.023633
v -0.152957 0.171381 -0.006798
v -0.120104 0.148606 -0.045019
v -0.088118 0.152211 -0.058168
v -0.125565 0.131679 -0.009104
v -0.124641 0.183908 -0.054446
v -0.139595 0.202848 -0.005389
v -0.092190 0.191951 -0.074241
v -0.130714 0.180316 -0.012208
v -0.154106 0.179306 -0.006860
v -0.123488 0.147218 -0.026455
v -0.138406 0.156244 -0.005468
v -0.119610 0.147944 -0.022331
v -0.122212 0.149380 -0.004686
v -0.133953 0.134275 -0.009635
v -0.122105 0.145434 -0.026362
v -0.122253 0.143379 -0.006248
v -0.117920 0.143938 -0.024171
v -0.127127 0.234642 -0.022617
v -0.121378 0.195594 -0.052933
v -0.118747 0.235211 -0.057415
v -0.125661 0.194474 -0.026614
v -0.116228 0.214814 -0.060346
v -0.123735 0.208562 -0.017868
v -0.127035 0.225611 -0.023627
v -0.122558 0.205260 -0.048496
v -0.123391 0.227022 -0.052312
v -0.125734 0.205656 -0.028864
v -0.064829 0.126291 -0.027316
v -0.044104 0.128828 -0.036451
v -0.070797 0.116235 -0.012206
v -0.030734 0.151696 -0.050303
v -0.034177 0.165596 -0.057704
v -0.027787 0.187969 -0.068096
v -0.017366 0.227543 -0.072541
v -0.046174 0.185527 -0.068339
v -0.035014 0.234651 -0.080700
v -0.017704 0.205227 -0.071022
v -0.052561 0.220046 -0.079376
v -0.024936 0.187858 -0.070426
v -0.016061 0.230594 -0.078323
v -0.043618 0.180974 -0.072062
v -0.037073 0.240563 -0.083078
v -0.013837 0.205301 -0.077465
v -0.023357 0.181313 -0.078994
v -0.006438 0.232309 -0.097360
v -0.032908 0.179498 -0.077781
v -0.024201 0.249902 -0.091697
v -0.005159 0.217084 -0.097313
v -0.136368 0.150307 -0.005077
v -0.120942 0.148859 -0.022478
v -0.120185 0.144002 -0.022582
v -0.130176 0.142774 -0.009090
v -0.122644 0.141238 -0.028421
v -0.119490 0.292268 -0.060519
v 0.022764 0.304414 -0.061128
v -0.033649 0.306276 -0.083065
v -0.079999 0.301647 -0.074595
v 0.043069 0.310386 -0.030614
v -0.136223 0.299996 -0.019331
v -0.127685 0.215677 -0.011712
v -0.133210 0.220746 -0.008794
v -0.117423 0.135246 -0.038216
v -0.087681 0.135357 -0.046321
v -0.123378 0.148397 -0.029217
v -0.123936 0.210449 -0.017845
v -0.130557 0.166281 -0.027425
v -0.128262 0.149718 -0.014034
v -0.131999 0.180986 -0.027824
v -0.130628 0.160667 -0.021134
v -0.130412 0.153793 -0.016024
v -0.120978 0.148950 -0.012393
v -0.056414 0.042632 -0.017040
v -0.056495 0.046931 -0.023113
v -0.038271 0.055347 -0.041205
v -0.010418 0.074287 -0.059540
v 0.011732 0.092045 -0.050081
v 0.023869 0.100530 -0.041080
v 0.033489 0.105177 -0.016511
v -0.018329 0.152345 -0.043001
v -0.006637 0.165379 -0.040301
v -0.035605 0.090576 -0.042051
v -0.011006 0.109812 -0.044736
v -0.048344 0.091150 -0.024195
v -0.055558 0.093556 -0.031440
v 0.015350 0.131117 -0.033264
v 0.022035 0.137598 -0.017342
v 0.004762 0.121337 -0.041376
v -0.136046 0.149927 -0.001871
v -0.138999 0.155784 -0.002234
v -0.136982 0.162983 -0.003307
v -0.122437 0.149032 -0.001711
v -0.036829 0.225907 -0.086638
v -0.039330 0.219059 -0.085545
v -0.042128 0.208072 -0.078917
v -0.037871 0.213237 -0.081734
v -0.035873 0.205907 -0.080301
v -0.034603 0.208124 -0.081906
v -0.024305 0.198202 -0.083380
v -0.032312 0.232932 -0.088154
v -0.026548 0.240014 -0.091524
v -0.012275 0.229807 -0.095059
v -0.010106 0.216196 -0.096128
v -0.039960 0.184198 -0.078973
v -0.042436 0.230931 -0.083715
v -0.044954 0.218404 -0.082653
v -0.040939 0.211043 -0.080401
v -0.036435 0.207719 -0.080754
v -0.036510 0.237698 -0.085415
v -0.025699 0.246212 -0.092357
v -0.009984 0.230767 -0.097762
v -0.033771 0.181572 -0.080476
v -0.025958 0.185181 -0.082383
v -0.008195 0.216106 -0.096379
v -0.045598 0.190903 -0.071795
v -0.034961 0.226112 -0.078141
v -0.037332 0.220400 -0.075197
v -0.035578 0.210096 -0.079881
v -0.027338 0.206960 -0.078790
v -0.023779 0.200544 -0.081549
v -0.034211 0.227603 -0.079003
v -0.028266 0.237418 -0.089579
v -0.012628 0.229344 -0.092122
v -0.010949 0.215102 -0.094569
v -0.020806 0.194113 -0.069198
v 0.014709 0.202911 -0.049883
v 0.033478 0.209457 -0.022348
v -0.017573 0.194068 -0.076121
v -0.015759 0.197508 -0.082562
v -0.021560 0.201707 -0.085180
v -0.019617 0.199750 -0.086114
v -0.019213 0.202896 -0.085305
v -0.103693 0.212916 -0.069375
v -0.059523 0.134799 -0.045462
v -0.039050 0.028265 -0.090720
v 0.040227 0.081502 -0.045950
v -0.070112 0.018874 -0.028330
v -0.007865 0.065378 -0.079304
v 0.041395 0.084138 -0.015402
v -0.061127 0.022790 -0.038498
v 0.034795 0.078022 -0.068771
v -0.120132 0.121839 -0.026631
v -0.127846 0.119118 -0.008022
v -0.095818 0.131158 -0.041366
v -0.075311 0.129567 -0.036650
v -0.090169 0.112623 -0.009942
v -0.085860 0.119129 -0.023573
v -0.053459 0.197631 -0.074162
v -0.048624 0.200375 -0.074344
v -0.128857 0.171923 -0.033879
v -0.060376 0.091357 -0.012800
v -0.051192 0.040720 -0.007024
v -0.046130 0.194956 -0.071651
v -0.027903 0.201816 -0.079007
v -0.034475 0.196498 -0.077043
v -0.037151 0.193478 -0.077302
v -0.040988 0.193698 -0.077669
v -0.031716 0.218613 -0.077166
v -0.033961 0.215211 -0.076751
v -0.023395 0.207333 -0.081534
v -0.024228 0.224096 -0.080963
v -0.020363 0.232585 -0.090429
v -0.023763 0.201877 -0.082822
v -0.021101 0.218771 -0.083855
v -0.020472 0.214470 -0.082256
v -0.014242 0.226792 -0.092679
v -0.011669 0.214625 -0.089779
v -0.030988 0.211507 -0.077667
v -0.026874 0.212050 -0.079707
v -0.027552 0.228604 -0.088169
v -0.031458 0.227345 -0.080603
v -0.019152 0.226750 -0.091318
v -0.023824 0.223124 -0.087540
v -0.024753 0.207360 -0.083125
v -0.024639 0.203250 -0.082746
v -0.022689 0.218663 -0.086501
v -0.021674 0.214497 -0.084984
v -0.017806 0.222650 -0.089814
v -0.015583 0.215008 -0.088578
v -0.035879 0.202939 -0.080735
v -0.042212 0.202505 -0.083068
v -0.037029 0.196917 -0.080439
v -0.044673 0.196318 -0.078103
v -0.040968 0.202688 -0.072975
v -0.039486 0.197808 -0.070605
v -0.037981 0.207562 -0.075937
v -0.030863 0.206922 -0.071335
v -0.025383 0.218707 -0.081157
v -0.024024 0.213127 -0.080842
v -0.124636 0.169022 0.050753
v 0.003927 0.177031 0.034949
v -0.110369 0.317506 0.050328
v 0.017923 0.335645 0.050011
v -0.125643 0.267456 0.063214
v 0.026153 0.270483 0.065076
v -0.045757 0.152032 0.056326
v -0.048829 0.174599 0.067131
v -0.034962 0.336958 0.066742
v -0.043757 0.265741 0.086158
v -0.114090 0.113103 0.020092
v -0.113759 0.212795 0.062657
v 0.018115 0.225413 0.058662
v -0.057014 0.212006 0.079330
v -0.129468 0.250223 0.062612
v -0.133382 0.167242 0.013053
v 0.017425 0.187707 0.015511
v 0.022104 0.352811 0.024823
v -0.088036 0.178809 0.070827
v -0.071958 0.335099 0.059382
v -0.085119 0.268286 0.080911
v -0.090214 0.126498 0.035322
v -0.096495 0.213037 0.077092
v -0.122588 0.332997 0.023726
v 0.055396 0.271038 0.032801
v -0.144703 0.266999 0.018697
v -0.120508 0.106802 0.007952
v -0.035534 0.361021 0.024353
v -0.127557 0.202791 0.012779
v 0.041639 0.228052 0.027932
v -0.137815 0.238930 0.011173
v -0.075508 0.357233 0.023633
v -0.152957 0.171381 0.006798
v -0.120104 0.148606 0.045019
v -0.088118 0.152211 0.058168
v -0.125565 0.131679 0.009104
v -0.124641 0.183908 0.054446
v -0.139595 0.202848 0.005389
v -0.092190 0.191951 0.074241
v -0.130714 0.180316 0.012208
v -0.154106 0.179306 0.006860
v -0.123488 0.147218 0.026455
v -0.138406 0.156244 0.005468
v -0.119610 0.147944 0.022331
v -0.122212 0.149380 0.004686
v -0.133953 0.134275 0.009635
v -0.122105 0.145434 0.026362
v -0.122253 0.143379 0.006248
v -0.117920 0.143938 0.024171
v -0.127127 0.234642 0.022617
v -0.121378 0.195594 0.052933
v -0.118747 0.235211 0.057415
v -0.125661 0.194474 0.026614
v -0.116228 0.214814 0.060346
v -0.123735 0.208562 0.017868
v -0.127035 0.225611 0.023627
v -0.122558 0.205260 0.048496
v -0.123391 0.227022 0.052312
v -0.125734 0.205656 0.028864
v -0.064829 0.126291 0.027316
v -0.044104 0.128828 0.036451
v -0.070797 0.116235 0.012206
v -0.030734 0.151696 0.050303
v -0.034177 0.165596 0.057704
v -0.027787 0.187969 0.068096
v -0.017366 0.227543 0.072541
v -0.046174 0.185527 0.068339
v -0.035014 0.234651 0.080700
v -0.017704 0.205227 0.071022
v -0.052561 0.220046 0.079376
v -0.024936 0.187858 0.070426
v -0.016061 0.230594 0.078323
v -0.043618 0.180974 0.072062
v -0.037073 0.240563 0.083078
v -0.013837 0.205301 0.077465
v -0.023357 0.181313 0.078994
v -0.006438 0.232309 0.097360
v -0.032908 0.179498 0.077781
v -0.024201 0.249902 0.091697
v -0.005159 0.217084 0.097313
v -0.136368 0.150307 0.005077
v -0.120942 0.148859 0.022478
v -0.120185 0.144002 0.022582
v -0.130176 0.142774 0.009090
v -0.122644 0.141238 0.028421
v -0.119490 0.292268 0.060519
v 0.022764 0.304414 0.061128
v -0.033649 0.306276 0.083065
v -0.079999 0.301647 0.074595
v 0.043069 0.310386 0.030614
v -0.136223 0.299996 0.019331
v -0.127685 0.215677 0.011712
v -0.133210 0.220746 0.008794
v 0.019289 0.186915 -0.000000
v -0.135738 0.162210 -0.000000
v 0.021285 0.354433 -0.000000
v -0.122989 0.335348 -0.000000
v 0.056200 0.271053 -0.000000
v -0.144105 0.266952 -0.000000
v -0.121455 0.105419 -0.000000
v -0.035470 0.363707 -0.000000
v -0.140710 0.202826 -0.000000
v 0.042806 0.228110 -0.000000
v -0.139055 0.231534 -0.000000
v -0.075390 0.360565 -0.000000
v -0.154155 0.170441 -0.000000
v -0.138599 0.155622 -0.000000
v -0.155450 0.179695 -0.000000
v -0.126057 0.130519 -0.000000
v -0.122567 0.148871 -0.000000
v -0.134882 0.133292 -0.000000
v -0.122643 0.142546 -0.000000
v -0.070445 0.114878 -0.000000
v -0.135658 0.149806 -0.000000
v -0.131176 0.141606 -0.000000
v 0.043062 0.311224 -0.000000
v -0.135377 0.301219 -0.000000
v -0.117423 0.135246 0.038216
v -0.087681 0.135357 0.046321
v -0.135411 0.221950 -0.000000
v -0.123378 0.148397 0.029217
v -0.123936 0.210449 0.017845
v -0.130557 0.166281 0.027425
v -0.128262 0.149718 0.014034
v -0.131999 0.180986 0.027824
v -0.130628 0.160667 0.021134
v -0.130412 0.153793 0.016024
v -0.120978 0.148950 0.012393
v 0.034807 0.107547 -0.000000
v -0.048560 0.038633 -0.000000
v -0.056414 0.042632 0.017040
v -0.056495 0.046931 0.023113
v -0.038271 0.055347 0.041205
v -0.010418 0.074287 0.059540
v 0.011732 0.092045 0.050081
v 0.023869 0.100530 0.041080
v 0.033489 0.105177 0.016511
v -0.056821 0.019025 -0.000000
v -0.018329 0.152345 0.043001
v -0.006637 0.165379 0.040301
v -0.035605 0.090576 0.042051
v -0.011006 0.109812 0.044736
v -0.048344 0.091150 0.024195
v -0.055558 0.093556 0.031440
v 0.015350 0.131117 0.033264
v 0.022035 0.137598 0.017342
v 0.004762 0.121337 0.041376
v -0.068414 0.091658 -0.000000
v 0.024740 0.139626 -0.000000
v -0.136046 0.149927 0.001871
v -0.138999 0.155784 0.002234
v -0.136982 0.162983 0.003307
v -0.122437 0.149032 0.001711
v -0.036829 0.225907 0.086638
v -0.039330 0.219059 0.085545
v -0.042128 0.208072 0.078917
v -0.037871 0.213237 0.081734
v -0.035873 0.205907 0.080301
v -0.034604 0.208124 0.081906
v -0.024305 0.198202 0.083380
v -0.032312 0.232932 0.088154
v -0.026548 0.240014 0.091524
v -0.012275 0.229807 0.095059
v -0.010106 0.216196 0.096128
v -0.039960 0.184198 0.078973
v -0.042436 0.230931 0.083715
v -0.044954 0.218404 0.082653
v -0.040939 0.211043 0.080401
v -0.036435 0.207719 0.080754
v -0.036510 0.237698 0.085415
v -0.025699 0.246212 0.092357
v -0.009984 0.230767 0.097762
v -0.033771 0.181572 0.080476
v -0.025958 0.185181 0.082383
v -0.008195 0.216106 0.096379
v -0.045598 0.190903 0.071795
v -0.034961 0.226112 0.078141
v -0.037332 0.220400 0.075197
v -0.035578 0.210096 0.079881
v -0.027338 0.206960 0.078790
v -0.023780 0.200544 0.081549
v -0.034211 0.227603 0.079003
v -0.028266 0.237418 0.089579
v -0.012628 0.229344 0.092122
v -0.010949 0.215102 0.094569
v 0.034616 0.209240 -0.000000
v -0.020806 0.194113 0.069198
v 0.014709 0.202911 0.049883
v 0.033478 0.209457 0.022348
v -0.017573 0.194068 0.076121
v -0.015759 0.197508 0.082562
v -0.021560 0.201707 0.085180
v -0.019617 0.199750 0.086114
v -0.019213 0.202896 0.085305
v -0.103693 0.212916 0.069375
v -0.059523 0.134799 0.045462
v -0.039050 0.028265 0.090720
v 0.040227 0.081502 0.045950
v -0.070112 0.018874 0.028330
v -0.007865 0.065378 0.079304
v 0.041395 0.084138 0.015402
v 0.040422 0.084843 -0.000000
v -0.061127 0.022790 0.038498
v 0.034795 0.078022 0.068771
v -0.072346 -0.003670 0.000000
v -0.120132 0.121839 0.026631
v -0.127846 0.119118 0.008022
v -0.095818 0.131158 0.041366
v -0.128678 0.118938 -0.000000
v -0.075311 0.129567 0.036650
v -0.090169 0.112623 0.009942
v -0.085860 0.119129 0.023573
v -0.091471 0.111832 -0.000000
v -0.053459 0.197631 0.074162
v -0.048624 0.200375 0.074344
v -0.128857 0.171923 0.033879
v -0.060376 0.091357 0.012800
v -0.051192 0.040720 0.007024
v -0.046130 0.194956 0.071651
v -0.027903 0.201816 0.079007
v -0.034475 0.196498 0.077043
v -0.037151 0.193478 0.077302
v -0.040988 0.193698 0.077669
v -0.031716 0.218613 0.077166
v -0.033961 0.215211 0.076751
v -0.023395 0.207333 0.081534
v -0.024228 0.224096 0.080963
v -0.020363 0.232585 0.090429
v -0.023763 0.201877 0.082822
v -0.021101 0.218771 0.083855
v -0.020472 0.214470 0.082256
v -0.014242 0.226792 0.092679
v -0.011669 0.214625 0.089779
v -0.030988 0.211507 0.077667
v -0.026874 0.212050 0.079707
v -0.027552 0.228604 0.088169
v -0.031458 0.227345 0.080603
v -0.019152 0.226750 0.091318
v -0.023824 0.223124 0.087540
v -0.024753 0.207360 0.083125
v -0.024639 0.203250 0.082746
v -0.022689 0.218663 0.086501
v -0.021674 0.214497 0.084984
v -0.017807 0.222650 0.089814
v -0.015583 0.215008 0.088578
v -0.035879 0.202939 0.080735
v -0.042212 0.202505 0.083068
v -0.037029 0.196917 0.080439
v -0.044673 0.196318 0.078103
v -0.040968 0.202688 0.072975
v -0.039486 0.197808 0.070605
v -0.037981 0.207562 0.075937
v -0.030863 0.206922 0.071335
v -0.025383 0.218707 0.081157
v -0.024024 0.213127 0.080842
vn -0.2801 0.9033 -0.3249
vn -0.2734 0.6628 -0.6971
vn -0.5682 0.5282 -0.6309
vn -0.7086 0.6381 -0.3012
vn -0.9272 0.3105 -0.2095
vn -0.6514 0.3166 -0.6896
vn 0.0926 0.2771 -0.9564
vn 0.0393 0.6588 -0.7513
vn 0.4847 0.5829 -0.6521
vn 0.5626 0.2694 -0.7816
vn 0.8862 0.3522 -0.3010
vn 0.9392 -0.0100 -0.3432
vn 0.5758 -0.0319 -0.8170
vn -0.9634 -0.2679 -0.0000
vn -0.9996 0.0285 -0.0000
vn -0.9808 0.0493 -0.1885
vn -0.9198 -0.2844 -0.2703
vn -0.7213 0.0829 -0.6877
vn -0.7673 -0.2430 -0.5934
vn 0.9256 0.3784 -0.0000
vn 1.0000 0.0014 -0.0000
vn -0.2879 0.3263 -0.9004
vn 0.5558 0.7814 -0.2836
vn 0.0240 0.9486 -0.3155
vn 0.5338 -0.8294 -0.1649
vn 0.3986 -0.3658 -0.8410
vn 0.1462 -0.3610 -0.9210
vn -0.0517 -0.5145 -0.8559
vn 0.5737 0.8191 -0.0000
vn 0.0319 0.9995 -0.0000
vn -0.3027 -0.1042 -0.9474
vn -0.2641 0.0710 -0.9619
vn 0.0777 -0.0003 -0.9970
vn 0.0658 -0.1827 -0.9810
vn 0.6516 -0.4821 -0.5857
vn 0.7072 -0.2664 -0.6549
vn 0.7892 -0.5882 -0.1764
vn -0.9993 -0.0380 -0.0000
vn -0.8327 -0.1185 -0.5409
vn -0.8009 -0.0165 -0.5985
vn -0.6012 -0.0978 -0.7931
vn -0.2524 -0.2252 -0.9410
vn 0.8802 -0.3494 -0.3213
vn 0.5922 -0.2796 -0.7557
vn -0.6685 -0.4059 -0.6232
vn -0.1393 -0.4729 -0.8700
vn -0.0771 -0.6512 -0.7550
vn -0.6251 -0.4375 -0.6464
vn 0.9352 -0.3541 -0.0000
vn -0.2755 0.9613 -0.0000
vn -0.9516 0.3073 -0.0000
vn -0.7368 0.6761 -0.0000
vn 0.0273 -0.7910 -0.6111
vn -0.2025 -0.8141 -0.5443
vn -0.6504 -0.4793 -0.5892
vn -0.1312 -0.6794 -0.7220
vn -0.8868 -0.4137 -0.2061
vn -0.8206 -0.1037 -0.5621
vn -0.9443 -0.1029 -0.3125
vn -0.9961 -0.0634 0.0615
vn -0.7452 -0.2703 -0.6096
vn -0.1548 -0.3359 -0.9291
vn 0.1901 -0.5008 -0.8444
vn -0.7841 0.1459 -0.6033
vn -0.9701 0.2086 -0.1244
vn -0.9868 0.1021 -0.1261
vn -0.7646 0.1373 -0.6297
vn -0.8013 -0.5983 -0.0000
vn -0.9770 0.2130 -0.0000
vn -0.7635 0.1744 -0.6219
vn -0.6682 -0.4361 -0.6028
vn 0.8669 -0.4985 -0.0000
vn 0.9668 -0.2555 -0.0000
vn 0.9106 -0.3125 -0.2706
vn 0.8393 -0.4873 -0.2411
vn -0.9372 -0.1633 -0.3082
vn -0.8162 -0.4307 -0.3852
vn -0.9091 -0.4104 0.0720
vn -0.9358 -0.2990 -0.1870
vn -0.9048 -0.2762 -0.3241
vn -0.9749 -0.2031 0.0912
vn -0.3901 -0.9108 -0.1352
vn -0.4260 -0.8564 0.2919
vn 0.1860 -0.5983 0.7794
vn -0.1347 -0.9908 0.0122
vn -0.5705 -0.8206 -0.0321
vn -0.6148 -0.7473 -0.2522
vn -0.0722 -0.9963 -0.0465
vn -0.0652 -0.9933 -0.0954
vn -0.5350 0.8434 -0.0506
vn -0.0882 0.9929 0.0797
vn 0.2585 0.5194 0.8145
vn -0.4299 0.8077 0.4036
vn -0.8523 -0.4077 -0.3276
vn -0.8772 -0.4801 -0.0000
vn -0.9009 -0.4340 -0.0000
vn -0.9129 -0.2433 -0.3276
vn -0.6324 0.7746 -0.0000
vn -0.1139 0.9935 -0.0000
vn -0.7749 -0.0965 -0.6247
vn -0.8716 -0.3584 -0.3344
vn -0.7296 0.2816 -0.6231
vn -0.8113 -0.0741 -0.5799
vn -0.8812 0.1251 -0.4559
vn -0.9434 -0.0088 -0.3314
vn -0.7832 0.0180 -0.6215
vn -0.8605 -0.3229 -0.3940
vn -0.8978 0.1285 -0.4212
vn -0.8962 -0.0428 -0.4416
vn -0.9313 0.0997 -0.3504
vn -0.9903 0.0667 -0.1219
vn 0.1343 -0.8691 -0.4761
vn 0.0626 -0.8857 -0.4599
vn -0.3808 -0.3780 -0.8439
vn -0.2681 -0.7537 -0.6000
vn 0.1785 -0.9839 -0.0000
vn 0.1665 -0.9533 -0.2519
vn -0.3932 -0.7801 -0.4866
vn -0.5628 -0.8266 -0.0000
vn 0.0822 -0.7210 -0.6881
vn 0.1525 -0.2484 -0.9566
vn -0.1253 -0.1293 -0.9837
vn 0.0160 -0.3001 -0.9538
vn 0.9259 -0.2553 -0.2785
vn 0.8301 0.0849 -0.5512
vn -0.1948 0.7086 -0.6782
vn 0.4713 -0.1432 -0.8703
vn 0.5771 -0.6318 0.5174
vn 0.8592 -0.3761 0.3470
vn 0.9274 -0.1409 0.3465
vn 0.6098 0.4543 0.6494
vn -0.4541 0.8286 0.3276
vn -0.5171 -0.8528 0.0736
vn 0.5473 -0.8246 -0.1433
vn 0.7994 -0.5199 -0.3011
vn 0.8284 -0.1968 -0.5245
vn 0.7514 0.4713 -0.4617
vn 0.0953 0.9581 -0.2702
vn 0.0148 -0.9960 -0.0880
vn -0.9078 0.4194 -0.0000
vn 0.2630 -0.3155 -0.9118
vn -0.3864 -0.8720 -0.3006
vn -0.9347 -0.2463 -0.2562
vn -0.9819 -0.0211 -0.1880
vn -0.7242 0.6075 -0.3264
vn -0.7589 0.4901 -0.4288
vn -0.7032 0.3410 -0.6239
vn 0.5912 0.7017 -0.3976
vn 0.0866 0.8186 -0.5677
vn 0.1327 0.6096 -0.7816
vn 0.6289 0.5279 -0.5708
vn -0.4905 0.7346 -0.4688
vn -0.4104 0.5760 -0.7070
vn 0.9001 0.4137 -0.1370
vn 0.9052 0.3664 -0.2156
vn 0.9557 0.2944 -0.0000
vn 0.9523 0.3053 -0.0000
vn 0.0187 0.1471 -0.9889
vn -0.4701 0.0416 -0.8816
vn 0.2956 -0.1054 -0.9495
vn -0.8204 -0.0259 -0.5711
vn -0.9770 -0.0771 -0.1988
vn 0.2714 0.2196 -0.9371
vn -0.8865 -0.2390 -0.3962
vn 0.6781 0.2291 -0.6983
vn 0.9166 0.2182 -0.3351
vn 0.9786 0.2059 -0.0000
vn -0.9397 0.2673 0.2132
vn -0.9873 0.1093 0.1155
vn -0.9463 0.3165 -0.0659
vn -0.9970 -0.0775 -0.0000
vn -0.4986 -0.8669 -0.0000
vn -0.0679 -0.9977 -0.0000
vn -0.9696 -0.2448 -0.0000
vn -0.5188 -0.1227 -0.8460
vn -0.6918 0.3270 -0.6438
vn 0.3128 -0.3324 -0.8898
vn 0.2887 -0.2689 -0.9189
vn 0.4031 -0.1051 -0.9091
vn -0.3301 -0.3759 -0.8659
vn 0.2731 0.1748 -0.9460
vn -0.2023 -0.2795 -0.9386
vn -0.7996 0.3073 -0.5159
vn -0.4602 0.2053 -0.8638
vn -0.2498 0.0037 -0.9683
vn -0.5703 -0.2309 -0.7883
vn -0.2138 -0.4984 -0.8401
vn -0.5145 0.1917 -0.8358
vn 0.0875 -0.3625 -0.9279
vn -0.1507 -0.3601 -0.9207
vn -0.1099 -0.3687 -0.9230
vn -0.7220 0.3586 -0.5916
vn -0.6474 -0.2610 -0.7160
vn -0.7172 -0.1340 -0.6839
vn -0.4866 -0.2766 -0.8287
vn 0.1828 -0.4628 -0.8674
vn -0.3928 -0.1425 -0.9085
vn 0.2270 -0.5421 -0.8091
vn 0.0062 0.2492 -0.9684
vn -0.7933 0.6018 -0.0920
vn 0.0852 -0.7106 -0.6985
vn 0.2421 -0.6967 -0.6753
vn 0.4072 -0.4999 -0.7644
vn 0.5010 -0.1352 -0.8548
vn -0.6671 -0.2731 -0.6931
vn 0.5594 0.5636 -0.6078
vn -0.6559 0.0799 -0.7506
vn -0.3435 0.1274 -0.9305
vn -0.9107 0.4097 -0.0517
vn 0.2276 -0.6130 -0.7566
vn -0.5267 -0.2666 -0.8072
vn -0.4274 -0.9041 -0.0000
vn -0.9875 -0.1576 -0.0000
vn -0.9714 -0.1507 -0.1835
vn -0.8938 0.4484 -0.0000
vn -0.8644 0.5028 -0.0000
vn -0.8933 0.4487 -0.0246
vn -0.9676 -0.1466 -0.2058
vn -0.9943 0.1065 -0.0000
vn -0.9645 -0.2642 -0.0000
vn -0.4569 -0.3755 -0.8064
vn 0.8726 -0.3178 -0.3709
vn 0.4875 -0.8723 0.0385
vn -0.5691 -0.5109 -0.6443
vn 0.1992 0.4313 -0.8799
vn -0.3282 0.3890 -0.8608
vn 0.0135 -0.6349 -0.7725
vn 0.9729 -0.0095 -0.2311
vn -0.4462 0.0817 -0.8912
vn -0.6763 -0.0101 -0.7365
vn -0.5071 -0.1325 -0.8516
vn 0.0777 -0.3329 -0.9398
vn -0.6794 -0.5182 -0.5195
vn -0.6487 -0.6661 -0.3680
vn -0.6505 -0.5510 -0.5228
vn -0.3885 -0.1038 -0.9156
vn -0.3722 -0.2324 -0.8986
vn -0.3513 -0.2871 -0.8911
vn -0.0409 0.2237 -0.9738
vn -0.4535 -0.0459 -0.8901
vn -0.0743 0.2307 -0.9702
vn -0.9559 -0.2145 -0.2006
vn -0.4962 -0.0081 -0.8681
vn -0.5718 -0.3077 -0.7605
vn -0.8497 0.3339 -0.4081
vn -0.4235 -0.0473 -0.9046
vn -0.9425 0.0569 -0.3292
vn -0.2384 -0.0378 -0.9704
vn -0.3357 -0.2155 -0.9170
vn -0.5094 -0.0894 -0.8559
vn -0.8137 0.2209 -0.5377
vn -0.8332 -0.3846 -0.3974
vn -0.9481 0.0081 -0.3177
vn -0.7309 -0.3127 -0.6066
vn 0.6790 -0.7241 -0.1214
vn -0.2801 0.9033 0.3249
vn -0.7086 0.6381 0.3012
vn -0.5682 0.5282 0.6309
vn -0.2734 0.6628 0.6971
vn -0.9272 0.3105 0.2095
vn -0.6514 0.3166 0.6896
vn 0.0926 0.2771 0.9564
vn 0.5626 0.2694 0.7816
vn 0.4847 0.5829 0.6521
vn 0.0393 0.6588 0.7513
vn 0.8862 0.3522 0.3010
vn 0.5758 -0.0319 0.8170
vn 0.9392 -0.0100 0.3432
vn -0.9198 -0.2844 0.2703
vn -0.9808 0.0493 0.1885
vn -0.7673 -0.2430 0.5934
vn -0.7213 0.0829 0.6877
vn -0.2879 0.3263 0.9004
vn 0.5558 0.7814 0.2836
vn 0.0240 0.9486 0.3155
vn 0.5337 -0.8294 0.1652
vn -0.0517 -0.5145 0.8559
vn 0.1462 -0.3610 0.9210
vn 0.3986 -0.3658 0.8410
vn -0.3027 -0.1042 0.9474
vn 0.0658 -0.1827 0.9810
vn 0.0777 -0.0003 0.9970
vn -0.2641 0.0710 0.9619
vn 0.6516 -0.4821 0.5857
vn 0.7892 -0.5882 0.1764
vn 0.7072 -0.2664 0.6549
vn -0.8327 -0.1185 0.5409
vn -0.8009 -0.0165 0.5985
vn -0.2524 -0.2252 0.9410
vn -0.6012 -0.0978 0.7931
vn 0.5922 -0.2796 0.7557
vn 0.8802 -0.3494 0.3213
vn -0.6685 -0.4059 0.6232
vn -0.6251 -0.4375 0.6464
vn -0.0771 -0.6512 0.7550
vn -0.1393 -0.4729 0.8700
vn 0.0273 -0.7910 0.6111
vn -0.1312 -0.6794 0.7220
vn -0.6504 -0.4793 0.5892
vn -0.2025 -0.8141 0.5443
vn -0.8868 -0.4137 0.2061
vn -0.9961 -0.0634 -0.0615
vn -0.9443 -0.1029 0.3125
vn -0.8206 -0.1037 0.5621
vn -0.7452 -0.2703 0.6096
vn -0.1548 -0.3359 0.9291
vn 0.1901 -0.5008 0.8444
vn -0.7841 0.1459 0.6033
vn -0.7646 0.1373 0.6297
vn -0.9868 0.1021 0.1261
vn -0.9701 0.2086 0.1244
vn -0.6682 -0.4361 0.6028
vn -0.7635 0.1744 0.6219
vn 0.8393 -0.4873 0.2411
vn 0.9106 -0.3125 0.2706
vn -0.8162 -0.4307 0.3852
vn -0.9372 -0.1633 0.3082
vn -0.9091 -0.4104 -0.0720
vn -0.9749 -0.2031 -0.0912
vn -0.9048 -0.2762 0.3241
vn -0.9358 -0.2990 0.1870
vn -0.3901 -0.9108 0.1352
vn -0.1347 -0.9908 -0.0122
vn 0.1860 -0.5983 -0.7794
vn -0.4260 -0.8564 -0.2919
vn -0.5705 -0.8206 0.0321
vn -0.0652 -0.9933 0.0954
vn -0.0722 -0.9963 0.0465
vn -0.6148 -0.7473 0.2522
vn -0.5350 0.8434 0.0506
vn -0.4299 0.8077 -0.4036
vn 0.2585 0.5193 -0.8146
vn -0.0882 0.9929 -0.0797
vn -0.8523 -0.4077 0.3276
vn -0.9129 -0.2433 0.3276
vn -0.7749 -0.0965 0.6247
vn -0.8716 -0.3584 0.3344
vn -0.7296 0.2816 0.6231
vn -0.8113 -0.0741 0.5799
vn -0.7832 0.0180 0.6215
vn -0.9434 -0.0088 0.3314
vn -0.8812 0.1251 0.4559
vn -0.8605 -0.3229 0.3940
vn -0.8978 0.1285 0.4212
vn -0.8962 -0.0428 0.4416
vn -0.9313 0.0997 0.3504
vn -0.9903 0.0667 0.1219
vn 0.1343 -0.8691 0.4761
vn -0.2681 -0.7537 0.6000
vn -0.3808 -0.3780 0.8439
vn 0.0626 -0.8857 0.4599
vn -0.3932 -0.7801 0.4866
vn 0.1665 -0.9533 0.2519
vn 0.0822 -0.7210 0.6881
vn 0.1525 -0.2484 0.9566
vn 0.0160 -0.3001 0.9538
vn -0.1253 -0.1293 0.9837
vn 0.8301 0.0849 0.5512
vn 0.9259 -0.2553 0.2785
vn -0.1948 0.7086 0.6782
vn 0.4713 -0.1432 0.8703
vn 0.8592 -0.3761 -0.3470
vn 0.5771 -0.6318 -0.5174
vn 0.6098 0.4543 -0.6494
vn 0.9274 -0.1409 -0.3465
vn -0.4541 0.8286 -0.3276
vn -0.5171 -0.8528 -0.0736
vn 0.7994 -0.5199 0.3011
vn 0.5473 -0.8246 0.1433
vn 0.7514 0.4713 0.4617
vn 0.8284 -0.1968 0.5245
vn 0.0953 0.9581 0.2702
vn 0.0148 -0.9960 0.0880
vn 0.2630 -0.3155 0.9118
vn -0.9347 -0.2463 0.2562
vn -0.3864 -0.8720 0.3006
vn -0.9819 -0.0211 0.1880
vn -0.7242 0.6075 0.3264
vn -0.7032 0.3410 0.6239
vn -0.7589 0.4901 0.4288
vn 0.5912 0.7017 0.3976
vn 0.6289 0.5279 0.5708
vn 0.1327 0.6096 0.7816
vn 0.0866 0.8186 0.5677
vn -0.4905 0.7346 0.4688
vn -0.4104 0.5760 0.7070
vn 0.9001 0.4137 0.1370
vn 0.9052 0.3664 0.2156
vn 0.0187 0.1471 0.9889
vn 0.2956 -0.1054 0.9495
vn -0.4701 0.0416 0.8816
vn -0.8204 -0.0259 0.5711
vn -0.9770 -0.0771 0.1988
vn 0.2714 0.2196 0.9371
vn -0.8865 -0.2390 0.3962
vn 0.6781 0.2291 0.6983
vn 0.9166 0.2182 0.3351
vn -0.9397 0.2673 -0.2132
vn -0.9873 0.1093 -0.1155
vn -0.9463 0.3165 0.0659
vn -0.5188 -0.1227 0.8460
vn 0.2887 -0.2689 0.9189
vn 0.3128 -0.3324 0.8898
vn -0.6918 0.3270 0.6438
vn -0.3301 -0.3759 0.8659
vn 0.4031 -0.1051 0.9091
vn -0.2023 -0.2795 0.9386
vn 0.2730 0.1747 0.9460
vn -0.7996 0.3073 0.5159
vn -0.4602 0.2053 0.8638
vn -0.2498 0.0037 0.9683
vn -0.2138 -0.4984 0.8401
vn -0.5703 -0.2309 0.7883
vn 0.0875 -0.3625 0.9279
vn -0.5145 0.1917 0.8358
vn -0.1507 -0.3601 0.9207
vn -0.1099 -0.3687 0.9230
vn -0.7220 0.3586 0.5917
vn -0.6474 -0.2610 0.7160
vn -0.7172 -0.1340 0.6839
vn -0.4866 -0.2766 0.8287
vn 0.1828 -0.4628 0.8674
vn -0.3928 -0.1425 0.9085
vn 0.2270 -0.5421 0.8091
vn -0.7933 0.6018 0.0923
vn 0.0065 0.2492 0.9684
vn 0.2421 -0.6967 0.6753
vn 0.0852 -0.7106 0.6985
vn 0.5010 -0.1352 0.8548
vn 0.4072 -0.4999 0.7644
vn -0.6671 -0.2731 0.6931
vn 0.5593 0.5636 0.6079
vn -0.6559 0.0799 0.7506
vn -0.3435 0.1274 0.9305
vn -0.9107 0.4097 0.0517
vn 0.2276 -0.6130 0.7566
vn -0.5267 -0.2666 0.8072
vn -0.9714 -0.1507 0.1835
vn -0.8933 0.4487 0.0246
vn -0.9676 -0.1466 0.2058
vn -0.4569 -0.3755 0.8064
vn 0.8726 -0.3178 0.3709
vn 0.1992 0.4313 0.8799
vn -0.5691 -0.5109 0.6443
vn 0.4875 -0.8723 -0.0385
vn -0.3282 0.3890 0.8608
vn 0.0135 -0.6349 0.7725
vn -0.4462 0.0817 0.8912
vn 0.9729 -0.0095 0.2311
vn -0.5071 -0.1325 0.8516
vn -0.6763 -0.0101 0.7365
vn 0.0777 -0.3330 0.9397
vn -0.6794 -0.5182 0.5195
vn -0.6505 -0.5510 0.5228
vn -0.6487 -0.6661 0.3680
vn -0.3885 -0.1038 0.9156
vn -0.3513 -0.2871 0.8911
vn -0.3722 -0.2324 0.8986
vn -0.0409 0.2237 0.9738
vn -0.0743 0.2307 0.9702
vn -0.4535 -0.0459 0.8901
vn -0.4962 -0.0081 0.8681
vn -0.9559 -0.2145 0.2006
vn -0.5718 -0.3077 0.7605
vn -0.8497 0.3339 0.4081
vn -0.9425 0.0569 0.3292
vn -0.4235 -0.0473 0.9046
vn -0.2384 -0.0378 0.9704
vn -0.3358 -0.2154 0.9170
vn -0.5093 -0.0897 0.8559
vn -0.8137 0.2209 0.5377
vn -0.8332 -0.3846 0.3974
vn -0.9481 0.0081 0.3177
vn -0.7309 -0.3127 0.6066
vn 0.6790 -0.7241 0.1214
vt 0.154022 0.473912
vt 0.200220 0.369977
vt 0.231062 0.394759
vt 0.198481 0.472039
vt 0.258309 0.482449
vt 0.278942 0.363879
vt 0.584973 0.726007
vt 0.581943 0.727272
vt 0.582572 0.719336
vt 0.585711 0.717784
vt 0.579649 0.702880
vt 0.575480 0.702765
vt 0.576586 0.695866
vt 0.579903 0.696647
vt 0.360341 0.518141
vt 0.295817 0.528319
vt 0.295013 0.474607
vt 0.346438 0.488161
vt 0.292472 0.346819
vt 0.323889 0.343597
vt 0.579685 0.708186
vt 0.575404 0.708479
vt 0.263951 0.324154
vt 0.197965 0.349004
vt 0.256791 0.300183
vt 0.570989 0.690837
vt 0.572201 0.686595
vt 0.576907 0.682489
vt 0.575780 0.689551
vt 0.592161 0.745956
vt 0.592579 0.747791
vt 0.593475 0.747028
vt 0.593300 0.746131
vt 0.570961 0.695180
vt 0.575623 0.693812
vt 0.426836 0.311124
vt 0.326119 0.303839
vt 0.331610 0.288631
vt 0.429078 0.304640
vt 0.589519 0.744784
vt 0.590212 0.746901
vt 0.591723 0.745459
vt 0.377800 0.515386
vt 0.379656 0.489771
vt 0.476701 0.374104
vt 0.425848 0.333235
vt 0.465057 0.317898
vt 0.568232 0.746897
vt 0.572625 0.747522
vt 0.573168 0.742555
vt 0.568574 0.741688
vt 0.539959 0.398785
vt 0.535411 0.361334
vt 0.564459 0.394174
vt 0.563391 0.417399
vt 0.558870 0.748595
vt 0.561728 0.741667
vt 0.561855 0.742848
vt 0.559255 0.748697
vt 0.583824 0.724887
vt 0.580291 0.723975
vt 0.580370 0.719086
vt 0.583899 0.719172
vt 0.138442 0.542081
vt 0.147188 0.472099
vt 0.144204 0.541873
vt 0.253033 0.537939
vt 0.190447 0.540201
vt 0.578979 0.425114
vt 0.601154 0.467880
vt 0.586159 0.449716
vt 0.571382 0.408099
vt 0.507050 0.519298
vt 0.500769 0.491645
vt 0.519747 0.512657
vt 0.520084 0.521896
vt 0.503419 0.383702
vt 0.488621 0.326812
vt 0.704033 0.515559
vt 0.688837 0.518082
vt 0.687793 0.529792
vt 0.704239 0.529329
vt 0.435536 0.494786
vt 0.452958 0.454579
vt 0.477883 0.450217
vt 0.476661 0.494933
vt 0.492855 0.529271
vt 0.475885 0.529884
vt 0.477674 0.510195
vt 0.492198 0.509848
vt 0.574320 0.751957
vt 0.576623 0.751874
vt 0.576679 0.749375
vt 0.574494 0.748353
vt 0.586586 0.753284
vt 0.587923 0.752691
vt 0.588604 0.754277
vt 0.587020 0.755544
vt 0.338238 0.358547
vt 0.313207 0.351055
vt 0.314461 0.300385
vt 0.415178 0.307669
vt 0.414190 0.329781
vt 0.514094 0.468046
vt 0.525898 0.482237
vt 0.539592 0.451903
vt 0.537863 0.444064
vt 0.550866 0.445871
vt 0.542849 0.452051
vt 0.533059 0.487671
vt 0.535959 0.463411
vt 0.537614 0.463772
vt 0.534210 0.492324
vt 0.530767 0.522548
vt 0.530573 0.513384
vt 0.532212 0.514443
vt 0.532383 0.522947
vt 0.545017 0.501382
vt 0.543462 0.509568
vt 0.545249 0.458232
vt 0.544882 0.462791
vt 0.565365 0.500607
vt 0.566064 0.526625
vt 0.560979 0.526808
vt 0.560688 0.499257
vt 0.545733 0.527359
vt 0.544009 0.527422
vt 0.281717 0.255063
vt 0.272974 0.258501
vt 0.271349 0.251060
vt 0.279501 0.252370
vt 0.388779 0.479930
vt 0.353810 0.454044
vt 0.412213 0.473161
vt 0.412393 0.494412
vt 0.392073 0.332711
vt 0.423783 0.355710
vt 0.406344 0.371237
vt 0.388484 0.339932
vt 0.352733 0.364579
vt 0.393369 0.343074
vt 0.389779 0.350295
vt 0.367847 0.376889
vt 0.398068 0.460804
vt 0.401504 0.460196
vt 0.426834 0.431016
vt 0.406376 0.427764
vt 0.670871 0.590852
vt 0.663853 0.579503
vt 0.667080 0.545537
vt 0.670645 0.568605
vt 0.604704 0.570486
vt 0.587367 0.563853
vt 0.588891 0.503721
vt 0.610740 0.505584
vt 0.693251 0.538593
vt 0.704181 0.538058
vt 0.804268 0.134903
vt 0.777485 0.140727
vt 0.763652 0.127666
vt 0.799990 0.120327
vt 0.589149 0.716895
vt 0.593675 0.718525
vt 0.595375 0.723788
vt 0.593114 0.723694
vt 0.594342 0.729946
vt 0.588977 0.727432
vt 0.592217 0.726206
vt 0.593563 0.729211
vt 0.590877 0.747847
vt 0.566637 0.733676
vt 0.567554 0.734003
vt 0.567262 0.734330
vt 0.566223 0.734160
vt 0.587510 0.768699
vt 0.585445 0.768366
vt 0.585376 0.767397
vt 0.587811 0.767826
vt 0.569140 0.729005
vt 0.567682 0.727699
vt 0.567743 0.727029
vt 0.569693 0.728524
vt 0.592300 0.756926
vt 0.593437 0.756921
vt 0.593283 0.757231
vt 0.592126 0.757122
vt 0.587594 0.757694
vt 0.587972 0.757216
vt 0.588385 0.757913
vt 0.587388 0.758230
vt 0.586362 0.764591
vt 0.587819 0.764933
vt 0.566957 0.725099
vt 0.569526 0.725513
vt 0.592627 0.757717
vt 0.592038 0.757831
vt 0.315872 0.535668
vt 0.318719 0.482079
vt 0.324865 0.354509
vt 0.584581 0.707529
vt 0.584432 0.703256
vt 0.583011 0.698583
vt 0.569249 0.738270
vt 0.565039 0.738920
vt 0.565037 0.742452
vt 0.412640 0.509891
vt 0.681962 0.530098
vt 0.687303 0.541820
vt 0.610804 0.502260
vt 0.588230 0.502875
vt 0.425016 0.352483
vt 0.455033 0.379215
vt 0.434272 0.515972
vt 0.370224 0.448547
vt 0.351438 0.354216
vt 0.316118 0.350505
vt 0.392890 0.323805
vt 0.740381 0.663019
vt 0.745423 0.586415
vt 0.709718 0.591186
vt 0.599999 0.589398
vt 0.606388 0.622680
vt 0.631369 0.594741
vt 0.617873 0.581862
vt 0.699410 0.647222
vt 0.689259 0.618503
vt 0.711076 0.542148
vt 0.714539 0.586814
vt 0.693552 0.580154
vt 0.687992 0.544293
vt 0.618628 0.624856
vt 0.665674 0.639222
vt 0.668111 0.610219
vt 0.643609 0.596917
vt 0.710016 0.519613
vt 0.685082 0.520175
vt 0.655653 0.540066
vt 0.683026 0.567623
vt 0.676541 0.478247
vt 0.662905 0.477604
vt 0.674684 0.436233
vt 0.677960 0.456841
vt 0.614007 0.450224
vt 0.610788 0.424208
vt 0.638123 0.523581
vt 0.649823 0.458808
vt 0.670504 0.409734
vt 0.571026 0.386020
vt 0.675793 0.489516
vt 0.630078 0.492867
vt 0.617526 0.554522
vt 0.631012 0.566645
vt 0.626313 0.509523
vt 0.652402 0.546314
vt 0.649852 0.520970
vt 0.657136 0.555486
vt 0.659050 0.540773
vt 0.715340 0.540693
vt 0.715779 0.557373
vt 0.698849 0.621319
vt 0.678923 0.624966
vt 0.685252 0.567683
vt 0.693210 0.575283
vt 0.655668 0.592099
vt 0.659815 0.569467
vt 0.681613 0.574081
vt 0.723233 0.555486
vt 0.670091 0.511838
vt 0.667908 0.594275
vt 0.695266 0.569800
vt 0.667893 0.542242
vt 0.524782 0.751345
vt 0.524926 0.752771
vt 0.521827 0.752691
vt 0.521859 0.751411
vt 0.638005 0.442008
vt 0.525343 0.754075
vt 0.522507 0.754277
vt 0.680063 0.457808
vt 0.520030 0.528288
vt 0.530696 0.527903
vt 0.532410 0.527841
vt 0.507949 0.528725
vt 0.417867 0.295540
vt 0.395061 0.293326
vt 0.404733 0.284615
vt 0.417119 0.287294
vt 0.427198 0.297831
vt 0.431012 0.301507
vt 0.436601 0.296999
vt 0.437163 0.300275
vt 0.387767 0.302214
vt 0.377298 0.295790
vt 0.382919 0.288902
vt 0.572137 0.738285
vt 0.571820 0.738673
vt 0.570933 0.737317
vt 0.571319 0.737197
vt 0.368395 0.269568
vt 0.361524 0.271704
vt 0.394675 0.254306
vt 0.397566 0.253052
vt 0.488449 0.306926
vt 0.484845 0.323416
vt 0.480017 0.303820
vt 0.485068 0.299338
vt 0.455027 0.292117
vt 0.478749 0.294111
vt 0.572961 0.736267
vt 0.572798 0.736338
vt 0.574369 0.736289
vt 0.574462 0.736436
vt 0.452618 0.284383
vt 0.448882 0.287190
vt 0.591407 0.745187
vt 0.591894 0.746511
vt 0.592051 0.746188
vt 0.591644 0.744996
vt 0.398902 0.260736
vt 0.424234 0.256044
vt 0.424030 0.256770
vt 0.592486 0.746647
vt 0.592537 0.746475
vt 0.379630 0.271545
vt 0.392088 0.280735
vt 0.436228 0.305563
vt 0.440415 0.301453
vt 0.414342 0.305041
vt 0.450445 0.297520
vt 0.446721 0.286910
vt 0.495328 0.692700
vt 0.494334 0.691404
vt 0.494821 0.691639
vt 0.497301 0.691881
vt 0.495111 0.714005
vt 0.496284 0.714193
vt 0.495924 0.717522
vt 0.305548 0.028257
vt 0.399290 0.269123
vt 0.384085 0.276948
vt 0.493720 0.715203
vt 0.492843 0.715894
vt 0.787906 0.077319
vt 0.799849 0.053320
vt 0.791280 0.076034
vt 0.492423 0.715101
vt 0.491470 0.716772
vt 0.425791 0.261166
vt 0.400425 0.306611
vt 0.403024 0.308983
vt 0.576259 0.738595
vt 0.576059 0.738031
vt 0.584473 0.767197
vt 0.584798 0.766240
vt 0.565833 0.732271
vt 0.565366 0.732777
vt 0.575413 0.743887
vt 0.572372 0.752028
vt 0.457158 0.310168
vt 0.447714 0.304891
vt 0.475911 0.334389
vt 0.466595 0.324839
vt 0.612093 0.524961
vt 0.587302 0.525857
vt 0.659990 0.562189
vt 0.663193 0.595406
vt 0.658908 0.601518
vt 0.656660 0.592755
vt 0.504786 0.450386
vt 0.670217 0.621042
vt 0.678843 0.596007
vt 0.677061 0.628368
vt 0.596109 0.662236
vt 0.582210 0.657519
vt 0.454628 0.318501
vt 0.576492 0.740738
vt 0.575361 0.740486
vt 0.705559 0.508719
vt 0.690484 0.506118
vt 0.773766 0.529388
vt 0.748842 0.529950
vt 0.725147 0.540773
vt 0.749534 0.571429
vt 0.495452 0.432261
vt 0.683207 0.522872
vt 0.679369 0.575232
vt 0.661211 0.530436
vt 0.714772 0.521958
vt 0.673233 0.526225
vt 0.630651 0.527764
vt 0.727308 0.530436
vt 0.433467 0.531417
vt 0.366552 0.366526
vt 0.827546 0.118681
vt 0.810313 0.115457
vt 0.817656 0.113536
vt 0.501498 0.642828
vt 0.500130 0.642786
vt 0.499731 0.640919
vt 0.502363 0.641482
vt 0.530130 0.701755
vt 0.532015 0.701824
vt 0.532845 0.702191
vt 0.790704 0.052074
vt 0.787328 0.070626
vt 0.459140 0.325521
vt 0.462391 0.308188
vt 0.462737 0.309225
vt 0.499963 0.638198
vt 0.502569 0.639210
vt 0.786650 0.096347
vt 0.796573 0.075467
vt 0.796267 0.091981
vt 0.425915 0.274864
vt 0.404058 0.267358
vt 0.448201 0.293960
vt 0.407164 0.300761
vt 0.401149 0.302008
vt 0.409978 0.281845
vt 0.498251 0.702531
vt 0.498119 0.703209
vt 0.495791 0.703067
vt 0.497272 0.700051
vt 0.425024 0.278332
vt 0.411204 0.275295
vt 0.497427 0.696711
vt 0.498630 0.700007
vt 0.497577 0.698549
vt 0.495784 0.698302
vt 0.496723 0.697553
vt 0.495675 0.696331
vt 0.494690 0.701620
vt 0.495732 0.700987
vt 0.400027 0.280405
vt 0.429732 0.309374
vt 0.429057 0.303563
vt 0.437993 0.298013
vt 0.438247 0.305854
vt 0.494715 0.697046
vt 0.495189 0.699060
vt 0.494447 0.700005
vt 0.393081 0.274191
vt 0.403921 0.271256
vt 0.445671 0.294269
vt 0.438193 0.293455
vt 0.417996 0.284527
vt 0.425397 0.288599
vt 0.425019 0.296417
vt 0.417382 0.292119
vt 0.427829 0.337560
vt 0.425700 0.341507
vt 0.421959 0.335564
vt 0.430713 0.336972
vt 0.457654 0.307118
vt 0.447087 0.293296
vt 0.445926 0.300012
vt 0.456923 0.300462
vt 0.498035 0.655657
vt 0.500818 0.653784
vt 0.501140 0.655000
vt 0.500013 0.656272
vt 0.498834 0.654000
vt 0.500172 0.653680
vt 0.494708 0.694777
vt 0.494928 0.694070
vt 0.497072 0.694415
vt 0.496246 0.696072
vt 0.497726 0.677847
vt 0.497496 0.674630
vt 0.499338 0.674926
vt 0.498785 0.678116
vt 0.449625 0.318161
vt 0.593737 0.745124
vt 0.593436 0.744905
vt 0.131919 0.609391
vt 0.176348 0.608052
vt 0.200582 0.683275
vt 0.166900 0.710393
vt 0.252243 0.593267
vt 0.259953 0.710813
vt 0.215271 0.683275
vt 0.191036 0.608052
vt 0.597942 0.706921
vt 0.599795 0.696496
vt 0.602625 0.698373
vt 0.600856 0.707964
vt 0.615835 0.692117
vt 0.614483 0.696496
vt 0.611360 0.694425
vt 0.612514 0.688215
vt 0.347296 0.552372
vt 0.296449 0.582058
vt 0.328697 0.703427
vt 0.297326 0.710109
vt 0.579563 0.713480
vt 0.575387 0.714122
vt 0.225858 0.751781
vt 0.216040 0.776365
vt 0.162336 0.731612
vt 0.570940 0.699615
vt 0.575732 0.698163
vt 0.576776 0.706092
vt 0.572102 0.704280
vt 0.387960 0.753065
vt 0.389499 0.759411
vt 0.289888 0.782544
vt 0.286044 0.767673
vt 0.380332 0.540310
vt 0.459618 0.686223
vt 0.441763 0.743495
vt 0.402648 0.753065
vt 0.404080 0.730937
vt 0.245265 0.710813
vt 0.567652 0.757479
vt 0.567425 0.762683
vt 0.572133 0.761480
vt 0.572132 0.756533
vt 0.525834 0.656862
vt 0.551401 0.636477
vt 0.549926 0.659716
vt 0.517160 0.694791
vt 0.139547 0.611706
vt 0.146607 0.609391
vt 0.181588 0.710393
vt 0.177024 0.731612
vt 0.583807 0.730530
vt 0.580291 0.728758
vt 0.567897 0.627602
vt 0.558403 0.645235
vt 0.577804 0.602382
vt 0.594850 0.583061
vt 0.506013 0.538255
vt 0.519383 0.534703
vt 0.518032 0.544003
vt 0.496674 0.566473
vt 0.487495 0.674651
vt 0.466398 0.732838
vt 0.687049 0.463450
vt 0.687334 0.482446
vt 0.664644 0.483086
vt 0.666085 0.466930
vt 0.431527 0.568044
vt 0.472831 0.564917
vt 0.469153 0.609722
vt 0.444608 0.607148
vt 0.490065 0.548818
vt 0.475522 0.549521
vt 0.574100 0.755563
vt 0.576405 0.754379
vt 0.586540 0.749601
vt 0.586915 0.747323
vt 0.588531 0.748517
vt 0.587891 0.750134
vt 0.336727 0.714025
vt 0.300733 0.767673
vt 0.305031 0.716893
vt 0.520870 0.574097
vt 0.507463 0.589200
vt 0.531291 0.603560
vt 0.534577 0.603175
vt 0.541949 0.608799
vt 0.528696 0.611555
vt 0.528655 0.568123
vt 0.530321 0.563368
vt 0.530607 0.591787
vt 0.528906 0.592269
vt 0.530180 0.533274
vt 0.531847 0.532756
vt 0.530742 0.541306
vt 0.528980 0.542489
vt 0.542165 0.553492
vt 0.537796 0.592246
vt 0.537664 0.596796
vt 0.541501 0.545386
vt 0.562509 0.552797
vt 0.557665 0.554491
vt 0.440354 0.339988
vt 0.437897 0.342985
vt 0.430280 0.341760
vt 0.431764 0.337140
vt 0.389678 0.547238
vt 0.355547 0.584024
vt 0.413195 0.546601
vt 0.412807 0.525382
vt 0.396884 0.692800
vt 0.393118 0.686739
vt 0.410068 0.649943
vt 0.427847 0.659915
vt 0.355846 0.684179
vt 0.370569 0.667162
vt 0.399438 0.563359
vt 0.402876 0.562882
vt 0.408593 0.593644
vt 0.428877 0.583965
vt 0.648265 0.562435
vt 0.660945 0.500187
vt 0.683168 0.438650
vt 0.674534 0.537076
vt 0.632372 0.510713
vt 0.622783 0.569548
vt 0.687253 0.494489
vt 0.672174 0.495228
vt 0.567816 0.676892
vt 0.568744 0.675462
vt 0.572460 0.679423
vt 0.570473 0.680166
vt 0.605726 0.699883
vt 0.603592 0.698776
vt 0.606800 0.693275
vt 0.588151 0.706017
vt 0.589073 0.705672
vt 0.591076 0.703521
vt 0.593719 0.706741
vt 0.595785 0.766496
vt 0.595770 0.767845
vt 0.595351 0.766600
vt 0.595425 0.766048
vt 0.598879 0.766604
vt 0.599206 0.767596
vt 0.596725 0.768059
vt 0.596757 0.766759
vt 0.600718 0.772130
vt 0.601148 0.772933
vt 0.598775 0.772552
vt 0.598634 0.772155
vt 0.592158 0.745703
vt 0.591979 0.745515
vt 0.593132 0.745354
vt 0.593294 0.745658
vt 0.587435 0.745148
vt 0.587215 0.744622
vt 0.588220 0.744894
vt 0.587824 0.745609
vt 0.599313 0.771310
vt 0.597828 0.771665
vt 0.600931 0.767068
vt 0.601500 0.769047
vt 0.591872 0.744811
vt 0.592464 0.744898
vt 0.312853 0.589262
vt 0.240546 0.751781
vt 0.584362 0.711851
vt 0.579828 0.705806
vt 0.578336 0.709855
vt 0.575196 0.711768
vt 0.575029 0.707436
vt 0.596672 0.694425
vt 0.663969 0.499679
vt 0.656599 0.483507
vt 0.585713 0.548863
vt 0.608309 0.547846
vt 0.405356 0.711673
vt 0.438425 0.682661
vt 0.432581 0.546866
vt 0.372038 0.584331
vt 0.396922 0.712138
vt 0.737008 0.397339
vt 0.708187 0.470514
vt 0.743992 0.473671
vt 0.664388 0.454830
vt 0.682443 0.461556
vt 0.695604 0.448075
vt 0.669929 0.421279
vt 0.696463 0.414975
vt 0.687046 0.444136
vt 0.710504 0.497042
vt 0.687378 0.495940
vt 0.692025 0.459848
vt 0.712831 0.452246
vt 0.616072 0.423455
vt 0.641748 0.450251
vt 0.665897 0.435852
vt 0.662726 0.406975
vt 0.646411 0.513661
vt 0.649949 0.483194
vt 0.659763 0.527102
vt 0.664820 0.616468
vt 0.599351 0.633169
vt 0.605437 0.606817
vt 0.670368 0.595542
vt 0.704219 0.523581
vt 0.643567 0.474026
vt 0.668620 0.646685
vt 0.555243 0.674389
vt 0.626248 0.562840
vt 0.671776 0.562894
vt 0.651757 0.495526
vt 0.656503 0.505583
vt 0.714880 0.486517
vt 0.714864 0.503207
vt 0.658789 0.520202
vt 0.672648 0.564316
vt 0.717123 0.564942
vt 0.654248 0.618112
vt 0.697109 0.566645
vt 0.646418 0.539041
vt 0.658579 0.472051
vt 0.651669 0.496797
vt 0.712103 0.475967
vt 0.521794 0.750134
vt 0.524889 0.749913
vt 0.522434 0.748517
vt 0.525273 0.748592
vt 0.658318 0.473538
vt 0.377245 0.769360
vt 0.375591 0.777693
vt 0.362861 0.781279
vt 0.354106 0.773234
vt 0.391933 0.769360
vt 0.405785 0.762417
vt 0.401553 0.766383
vt 0.390279 0.777693
vt 0.411826 0.763209
vt 0.410902 0.766537
vt 0.368795 0.773234
vt 0.356119 0.778556
vt 0.351231 0.772047
vt 0.362446 0.764839
vt 0.341430 0.778556
vt 0.324728 0.799018
vt 0.318065 0.797371
vt 0.336543 0.772047
vt 0.339416 0.799018
vt 0.366892 0.813487
vt 0.364127 0.812437
vt 0.332753 0.797371
vt 0.464044 0.752816
vt 0.459818 0.760679
vt 0.455238 0.756545
vt 0.462234 0.736522
vt 0.452900 0.766384
vt 0.428866 0.770105
vt 0.393994 0.808551
vt 0.392054 0.811293
vt 0.425598 0.778044
vt 0.422156 0.775497
vt 0.369076 0.805675
vt 0.393869 0.807837
vt 0.350913 0.796220
vt 0.349741 0.786091
vt 0.336225 0.796220
vt 0.411467 0.757966
vt 0.415220 0.761790
vt 0.389436 0.760076
vt 0.374748 0.760076
vt 0.347758 0.764839
vt 0.419956 0.775933
vt 0.424859 0.765012
vt 0.502702 0.689160
vt 0.501670 0.686191
vt 0.503531 0.689077
vt 0.503980 0.689522
vt 0.249329 0.306190
vt 0.259321 0.279001
vt 0.268645 0.286963
vt 0.259776 0.308184
vt 0.341291 0.790473
vt 0.355698 0.797227
vt 0.354388 0.805675
vt 0.252018 0.299695
vt 0.257577 0.300410
vt 0.262351 0.275547
vt 0.264017 0.306190
vt 0.571142 0.672442
vt 0.570815 0.672006
vt 0.570584 0.668589
vt 0.241695 0.306443
vt 0.234466 0.305415
vt 0.370386 0.797227
vt 0.396119 0.803296
vt 0.271041 0.289453
vt 0.269542 0.313417
vt 0.572651 0.767684
vt 0.572760 0.767530
vt 0.574539 0.765813
vt 0.574802 0.765231
vt 0.596125 0.768968
vt 0.574532 0.759980
vt 0.591038 0.699883
vt 0.422925 0.757810
vt 0.432985 0.751828
vt 0.444068 0.736414
vt 0.454469 0.726152
vt 0.694745 0.492010
vt 0.688166 0.580972
vt 0.677022 0.603497
vt 0.667896 0.582344
vt 0.496181 0.607604
vt 0.633972 0.647825
vt 0.610537 0.662074
vt 0.431359 0.743645
vt 0.404187 0.759411
vt 0.574107 0.763399
vt 0.575270 0.763063
vt 0.668356 0.450424
vt 0.689155 0.454013
vt 0.722600 0.505583
vt 0.724886 0.520202
vt 0.748481 0.488463
vt 0.717766 0.496797
vt 0.484822 0.626477
vt 0.565911 0.672459
vt 0.567041 0.673137
vt 0.567834 0.673745
vt 0.499997 0.661791
vt 0.500352 0.663717
vt 0.497675 0.663287
vt 0.498916 0.660952
vt 0.530126 0.701796
vt 0.528315 0.701505
vt 0.528813 0.701309
vt 0.571684 0.668912
vt 0.571358 0.671931
vt 0.438482 0.752370
vt 0.438021 0.753437
vt 0.436659 0.736270
vt 0.501537 0.650614
vt 0.501171 0.653840
vt 0.498603 0.653428
vt 0.498887 0.650618
vt 0.570793 0.674359
vt 0.569623 0.674175
vt 0.570203 0.671733
vt 0.374979 0.798654
vt 0.397745 0.789535
vt 0.410955 0.335561
vt 0.401840 0.337505
vt 0.400798 0.333928
vt 0.367072 0.764893
vt 0.367823 0.783681
vt 0.361171 0.764077
vt 0.360949 0.759508
vt 0.492761 0.707629
vt 0.493851 0.710015
vt 0.492066 0.711343
vt 0.492407 0.707569
vt 0.383024 0.790167
vt 0.397231 0.786118
vt 0.497705 0.709819
vt 0.496515 0.709832
vt 0.495850 0.707999
vt 0.494068 0.707999
vt 0.494733 0.709832
vt 0.422214 0.768749
vt 0.495633 0.710015
vt 0.496928 0.711351
vt 0.496421 0.712478
vt 0.497436 0.713215
vt 0.495005 0.711793
vt 0.494581 0.712996
vt 0.493847 0.711343
vt 0.357675 0.785847
vt 0.405363 0.754612
vt 0.413526 0.757529
vt 0.412411 0.765419
vt 0.404048 0.760495
vt 0.399210 0.767961
vt 0.401895 0.763819
vt 0.364708 0.792588
vt 0.375269 0.794750
vt 0.495322 0.714038
vt 0.495932 0.713173
vt 0.360581 0.794750
vt 0.419708 0.768622
vt 0.412112 0.769981
vt 0.382511 0.783681
vt 0.390855 0.780407
vt 0.398732 0.775783
vt 0.391072 0.772830
vt 0.350020 0.792588
vt 0.381761 0.764893
vt 0.591764 0.859169
vt 0.594174 0.861616
vt 0.585167 0.861805
vt 0.589239 0.858514
vt 0.360290 0.798654
vt 0.433149 0.754854
vt 0.431684 0.761590
vt 0.420594 0.762837
vt 0.421024 0.769496
vt 0.499352 0.649394
vt 0.500602 0.646500
vt 0.501667 0.647137
vt 0.501674 0.649105
vt 0.501153 0.649704
vt 0.500037 0.650373
vt 0.499086 0.649887
vt 0.499372 0.646724
vt 0.499497 0.672599
vt 0.499377 0.674491
vt 0.497519 0.674634
vt 0.497810 0.671413
vt 0.426299 0.744349
s 1
usemtl Material.001
f 32/1/1 20/2/2 3/3/3 24/4/4
f 91/5/5 24/4/4 3/3/3 86/6/6
f 88/7/7 9/8/8 4/9/9 87/10/10
f 90/11/11 25/12/12 6/13/13 87/14/10
f 324/15/14 319/16/15 26/17/16 31/18/17
f 31/18/17 26/17/16 5/19/18 15/20/19
f 336/21/20 318/22/21 25/12/12 90/11/11
f 89/23/22 20/2/2 9/24/8 88/25/7
f 18/26/23 4/27/9 9/28/8 28/29/24
f 65/30/25 64/31/26 8/32/27 67/33/28
f 316/34/29 18/26/23 28/29/24 321/35/30
f 23/36/31 21/37/32 10/38/33 14/39/34
f 157/40/35 2/41/36 65/30/25 156/42/37
f 340/43/38 324/15/14 31/18/17 93/44/39
f 37/45/40 164/46/41 23/36/31 39/47/42
f 86/6/6 3/3/3 20/2/2 89/23/22
f 25/48/12 30/49/43 13/50/44 6/51/13
f 34/52/45 35/53/46 95/54/47 94/55/48
f 28/56/24 9/57/8 20/58/2 32/59/1
f 318/60/21 323/61/49 30/62/43 25/63/12
f 321/64/30 28/65/24 32/1/1 325/66/50
f 337/67/51 317/68/52 24/4/4 91/5/5
f 22/69/53 11/70/54 173/71/55 175/72/56
f 325/66/50 32/1/1 24/4/4 317/68/52
f 122/73/57 16/74/58 43/75/59 121/76/60
f 1/77/61 19/78/62 35/53/46 34/52/45
f 19/79/62 8/80/27 7/81/63 35/82/46
f 29/83/64 53/84/65 100/85/66 40/86/67
f 326/87/68 328/88/69 41/89/70 33/90/71
f 1/77/61 37/45/40 39/47/42 19/78/62
f 406/91/72 314/92/73 17/93/74 158/94/75
f 158/95/75 17/96/74 2/97/36 157/98/35
f 15/99/19 5/100/18 21/101/32 23/102/31 164/103/41
f 16/74/58 101/104/76 102/105/77 43/75/59
f 42/106/78 96/107/79 85/108/80 47/109/81
f 99/110/82 82/111/83 44/112/84 103/113/85
f 120/114/86 81/115/87 45/116/88 123/117/89
f 84/118/90 48/119/91 49/120/92 83/121/93
f 36/122/94 329/123/95 331/124/96 46/125/97
f 47/109/81 46/125/97 84/118/90 83/121/93
f 84/118/90 335/126/98 332/127/99 48/119/91
f 82/128/83 83/129/93 49/130/92 44/131/84
f 92/132/100 93/44/39 31/18/17 50/133/101
f 29/134/64 38/135/102 93/44/39 92/132/100
f 12/136/103 51/137/104 57/138/105 54/139/106
f 52/140/107 12/141/103 54/142/106 58/143/108
f 97/144/109 55/145/110 29/134/64 92/132/100
f 51/137/104 53/146/65 59/147/111 57/138/105
f 53/146/65 29/134/64 55/145/110 59/147/111
f 178/148/112 176/149/113 61/150/114 60/151/115
f 433/152/116 177/153/117 62/154/118 333/155/119
f 7/81/63 165/156/120 95/157/47 35/82/46
f 179/158/121 14/159/34 70/160/122 180/161/123
f 6/162/13 13/163/44 69/164/124 66/165/125
f 14/166/34 10/167/33 68/168/126 70/169/122
f 64/31/26 65/30/25 2/41/36 112/170/127
f 156/171/37 65/172/25 71/173/128 159/174/129
f 66/175/125 69/176/124 75/177/130 72/178/131
f 68/179/126 66/180/125 72/181/131 74/182/132
f 65/183/25 67/184/28 73/185/133 71/186/128
f 159/187/129 71/188/128 76/189/134 160/190/135
f 72/178/131 75/177/130 80/191/136 77/192/137
f 74/182/132 72/181/131 77/193/137 79/194/138
f 71/186/128 73/185/133 78/195/139 76/196/134
f 42/106/78 47/109/81 83/121/93 82/111/83
f 46/125/97 331/124/96 335/126/98 84/118/90
f 121/76/60 43/75/59 81/115/87 120/114/86
f 102/105/77 42/106/78 82/111/83 99/110/82
f 319/197/15 337/67/51 91/5/5 26/198/16
f 5/199/18 86/6/6 89/23/22 21/37/32
f 21/37/32 89/23/22 88/25/7 10/38/33
f 316/200/29 336/21/20 90/11/11 18/201/23
f 18/201/23 90/11/11 87/14/10 4/202/9
f 10/203/33 88/204/7 87/205/10 6/51/13
f 26/198/16 91/5/5 86/6/6 5/199/18
f 322/206/140 340/43/38 93/44/39 38/135/102
f 85/108/80 96/107/79 34/52/45 94/55/48
f 85/108/80 36/122/94 46/125/97 47/109/81
f 101/104/76 96/107/79 42/106/78 102/105/77
f 7/81/63 63/207/141 61/208/114 165/156/120
f 11/70/54 27/209/142 174/210/143 173/71/55
f 12/211/103 164/46/41 37/45/40 51/212/104
f 81/115/87 99/110/82 103/113/85 45/116/88
f 43/75/59 102/105/77 99/110/82 81/115/87
f 40/86/67 16/74/58 33/90/71 41/89/70
f 33/90/71 16/74/58 122/73/57
f 29/83/64 40/86/67 41/89/70 38/213/102
f 37/45/40 100/85/66 53/84/65 51/212/104
f 92/132/100 50/133/101 56/214/144 97/144/109
f 31/18/17 15/20/19 52/215/107 50/133/101
f 15/216/19 164/217/41 12/141/103 52/140/107
f 166/218/145 171/219/146 106/220/147
f 167/221/148 172/222/149 108/223/150 109/224/151
f 169/225/152 166/218/145 106/220/147 107/226/153
f 170/227/154 167/228/148 109/229/151 110/230/155
f 172/231/149 169/232/152 107/233/153 108/234/150
f 422/235/156 170/227/154 110/230/155 349/236/157
f 114/237/158 113/238/159 63/239/141 111/240/160
f 116/241/161 115/242/162 60/243/115 61/244/114
f 119/245/163 114/237/158 111/240/160 112/246/127
f 113/247/159 116/241/161 61/244/114 63/248/141
f 115/242/162 182/249/164 62/250/118 60/243/115
f 109/251/151 108/252/150 119/245/163 117/253/165
f 349/236/157 110/230/155 118/254/166 369/255/167
f 104/256/168 183/257/169 182/258/164 115/259/162
f 106/260/147 105/261/170 116/262/161 113/263/159
f 108/252/150 107/264/153 114/237/158 119/245/163
f 110/230/155 109/229/151 117/265/165 118/254/166
f 105/266/170 104/267/168 115/259/162 116/268/161
f 107/269/153 106/260/147 113/270/159 114/271/158
f 369/272/167 118/273/166 17/274/74 314/275/73
f 117/253/165 119/245/163 112/246/127 2/276/36
f 118/273/166 117/277/165 2/278/36 17/274/74
f 63/239/141 64/279/26 112/246/127 111/240/160
f 327/280/171 121/76/60 120/114/86 334/281/172
f 334/281/172 120/114/86 123/117/89 330/282/173
f 315/283/174 122/73/57 121/76/60 327/280/171
f 137/284/175 136/285/176 124/286/177 125/287/178
f 137/284/175 125/287/178 127/288/179 138/289/180
f 138/289/180 127/288/179 129/290/181 139/291/182
f 136/285/176 68/292/126 74/293/132 140/294/183
f 140/295/183 74/296/132 79/297/138 141/298/184
f 141/299/184 79/300/138 77/301/137 142/302/185
f 78/303/139 73/304/133 135/305/186 143/306/187
f 143/306/187 135/305/186 130/307/188 144/308/189
f 142/309/185 77/310/137 80/311/136 145/312/190
f 162/313/191 144/308/189 130/307/188 161/314/192
f 160/315/135 76/316/134 144/317/189 162/318/191
f 133/319/193 142/302/185 145/320/190 134/321/194
f 78/322/139 143/323/187 144/317/189 76/316/134
f 132/324/195 141/299/184 142/302/185 133/319/193
f 131/325/196 140/294/183 141/299/184 132/324/195
f 124/286/177 136/285/176 140/294/183 131/325/196
f 126/326/197 138/289/180 139/291/182 128/327/198
f 70/328/122 137/284/175 138/289/180 126/326/197
f 70/328/122 68/292/126 136/285/176 137/284/175
f 161/314/192 130/307/188 151/329/199 163/330/200
f 131/331/196 132/332/195 153/333/201 152/334/202
f 125/335/178 124/336/177 147/337/203 148/338/204
f 132/324/195 133/319/193 154/339/205 153/340/201
f 127/341/179 125/335/178 148/338/204 149/342/206
f 139/343/182 185/344/207 128/345/198
f 129/346/181 127/341/179 149/342/206 150/347/208
f 133/319/193 134/321/194 155/348/209 154/339/205
f 124/286/177 131/325/196 152/349/202 147/350/203
f 134/321/194 161/314/192 163/330/200 155/348/209
f 80/311/136 160/351/135 162/352/191 145/312/190
f 145/320/190 162/313/191 161/314/192 134/321/194
f 75/177/130 159/353/129 160/354/135 80/191/136
f 69/355/124 156/171/37 159/174/129 75/356/130
f 30/49/43 158/94/75 157/357/35 13/50/44
f 323/358/49 406/91/72 158/94/75 30/49/43
f 10/167/33 6/162/13 66/165/125 68/168/126
f 130/307/188 135/305/186 186/359/210 185/360/207
f 135/305/186 73/304/133 67/361/28 146/362/211
f 27/209/142 320/363/212 429/364/213 174/210/143
f 165/365/120 22/366/53 175/367/56 95/368/47
f 165/365/120 61/150/114 176/149/113 22/366/53
f 101/104/76 98/369/214 34/52/45 96/107/79
f 175/72/56 173/71/55 94/55/48 95/54/47
f 173/71/55 174/210/143 36/122/94 85/108/80 94/55/48
f 174/210/143 429/364/213 329/123/95 36/122/94
f 11/370/54 22/366/53 176/149/113 178/148/112
f 11/370/54 178/148/112 177/371/117 27/372/142
f 320/373/212 27/374/142 177/153/117 433/152/116
f 39/47/42 23/36/31 14/39/34 179/375/121
f 13/50/44 157/357/35 156/376/37 69/377/124
f 19/79/62 39/378/42 179/379/121 8/80/27
f 425/380/215 358/381/216 183/382/169 104/267/168
f 168/383/217 425/380/215 104/267/168 105/266/170
f 98/369/214 101/104/76 16/74/58 40/86/67
f 100/85/66 181/384/218 98/369/214 40/86/67
f 315/283/174 326/87/68 33/90/71 122/73/57
f 8/80/27 64/385/26 63/207/141 7/81/63
f 98/369/214 181/384/218 1/77/61 34/52/45
f 1/77/61 181/384/218 100/85/66 37/45/40
f 178/148/112 60/151/115 62/386/118 177/371/117
f 182/258/164 183/257/169 350/387/219 368/388/220
f 62/250/118 182/249/164 368/389/220 333/390/119
f 183/382/169 358/381/216 350/391/219
f 322/392/140 38/213/102 41/89/70 328/88/69
f 50/133/101 52/215/107 58/393/108 56/214/144
f 67/394/28 180/161/123 184/395/221 146/396/211
f 215/397/222 217/398/223 218/399/224 216/400/225
f 185/401/207 186/402/210 187/403/226
f 150/404/208 185/344/207 139/343/182 129/405/181
f 146/362/211 184/406/221 188/407/227 187/408/226
f 135/305/186 146/362/211 187/408/226 186/359/210
f 185/409/207 187/410/226 216/400/225 218/399/224
f 126/411/197 128/345/198 211/412/228 212/413/229
f 155/348/209 198/414/230 197/415/231 154/339/205
f 163/330/200 151/329/199 194/416/232
f 192/417/233 152/349/202 202/418/234 204/419/235
f 147/420/203 152/421/202 192/422/233 189/423/236
f 197/415/231 198/414/230 210/424/237 209/425/238
f 149/426/206 148/427/204 190/428/239
f 148/427/204 147/420/203 189/423/236 190/428/239
f 194/416/232 198/414/230 155/348/209 163/330/200
f 189/423/236 200/429/240 199/430/241 190/428/239
f 149/426/206 190/428/239 199/430/241 150/431/208
f 189/423/236 192/422/233 195/432/242 219/433/243
f 152/349/202 153/340/201 201/434/244 202/418/234
f 199/435/241 200/436/240 191/437/245 150/438/208
f 191/439/245 200/429/240 220/440/246 196/441/247
f 193/442/248 197/415/231 209/425/238 203/443/249
f 196/441/247 220/440/246 219/433/243 195/432/242
f 202/418/234 201/434/244 203/443/249 204/419/235
f 206/444/250 130/307/188 185/360/207 205/445/251
f 204/419/235 203/443/249 209/425/238 207/446/252
f 209/425/238 210/424/237 208/447/253 207/446/252
f 205/445/251 208/447/253 210/424/237 206/444/250
f 196/448/247 195/449/242 207/446/252 208/447/253
f 153/340/201 193/442/248 203/443/249 201/434/244
f 195/449/242 192/417/233 204/419/235 207/446/252
f 198/414/230 194/416/232 206/444/250 210/424/237
f 194/450/232 151/451/199 130/452/188 206/453/250
f 191/437/245 196/448/247 208/447/253 205/445/251
f 154/339/205 197/415/231 193/442/248 153/340/201
f 214/454/254 212/455/229 211/456/228 213/457/255
f 188/458/227 128/459/198 217/460/223 215/461/222
f 188/407/227 184/406/221 214/454/254 213/457/255
f 128/459/198 188/458/227 213/462/255 211/463/228
f 126/326/197 212/455/229 214/454/254 184/406/221
f 187/464/226 188/465/227 215/466/222 216/467/225
f 128/468/198 185/469/207 218/470/224 217/471/223
f 184/406/221 180/472/123 70/328/122 126/326/197
f 191/437/245 205/445/251 185/360/207 150/438/208
f 219/433/243 220/440/246 200/429/240 189/423/236
f 8/32/27 179/473/121 180/474/123 67/33/28
f 171/219/146 168/383/217 105/266/170 106/220/147
f 252/475/256 244/476/257 223/477/258 240/478/259
f 311/479/260 306/480/261 223/481/258 244/482/257
f 308/483/262 307/484/263 224/485/264 229/486/265
f 310/487/266 307/488/263 226/489/267 245/490/268
f 324/15/14 251/491/269 246/492/270 319/16/15
f 251/491/269 235/493/271 225/494/272 246/492/270
f 336/21/20 310/495/266 245/496/268 318/22/21
f 309/497/273 308/498/262 229/499/265 240/478/259
f 238/500/274 248/501/275 229/502/265 224/503/264
f 285/30/276 287/33/277 228/32/278 284/31/279
f 316/34/29 321/35/30 248/501/275 238/500/274
f 243/504/280 234/505/281 230/506/282 241/507/283
f 408/40/284 407/42/285 285/30/276 222/41/286
f 340/43/38 313/508/287 251/491/269 324/15/14
f 257/509/288 259/510/289 243/511/280 415/512/290
f 306/513/261 309/497/273 240/478/259 223/477/258
f 245/514/268 226/515/267 233/516/291 250/517/292
f 254/518/293 338/519/294 339/520/295 255/521/296
f 248/522/275 252/523/256 240/524/259 229/525/265
f 318/60/21 245/526/268 250/527/292 323/61/49
f 321/64/30 325/66/50 252/523/256 248/522/275
f 337/67/51 311/479/260 244/482/257 317/68/52
f 242/528/297 428/529/298 426/530/299 231/531/300
f 325/66/50 317/68/52 244/482/257 252/523/256
f 372/532/301 371/533/302 263/534/303 236/535/304
f 221/536/305 254/518/293 255/521/296 239/537/306
f 239/538/306 255/539/296 227/540/307 228/541/278
f 249/542/308 260/543/309 345/544/310 273/545/311
f 326/87/68 253/546/312 261/547/313 328/88/69
f 221/536/305 239/537/306 259/510/289 257/509/288
f 406/91/72 409/548/314 237/549/315 314/92/73
f 409/550/314 408/551/284 222/552/286 237/553/315
f 235/554/271 415/512/290 243/511/280 241/555/283 225/556/272
f 236/535/304 263/534/303 347/557/316 346/558/317
f 262/559/318 267/560/319 305/561/320 341/562/321
f 344/563/322 348/564/323 264/565/324 302/566/325
f 370/567/326 373/568/327 265/569/328 301/570/329
f 304/571/330 303/572/331 269/573/332 268/574/333
f 256/575/334 266/576/335 331/124/96 329/123/95
f 267/560/319 303/572/331 304/571/330 266/576/335
f 304/571/330 268/574/333 332/127/99 335/126/98
f 302/577/325 264/578/324 269/579/332 303/580/331
f 312/581/336 270/582/337 251/491/269 313/508/287
f 249/583/308 312/581/336 313/508/287 258/584/338
f 232/585/339 274/586/340 277/587/341 271/588/342
f 272/589/343 278/590/344 274/586/340 232/585/339
f 342/591/345 312/581/336 249/583/308 275/592/346
f 271/588/342 277/587/341 279/593/347 273/594/311
f 273/594/311 279/593/347 275/592/346 249/583/308
f 432/595/348 280/596/349 281/597/350 430/598/351
f 433/152/116 333/155/119 282/599/352 431/600/353
f 227/540/307 255/539/296 339/601/295 416/602/354
f 434/603/355 435/604/356 290/605/357 234/606/281
f 226/489/267 286/607/358 289/608/359 233/609/291
f 234/610/281 290/611/357 288/612/360 230/613/282
f 284/31/279 360/170/361 222/41/286 285/30/276
f 407/614/285 410/615/362 291/616/363 285/617/276
f 286/618/358 292/619/364 295/620/365 289/621/359
f 288/622/360 294/623/366 292/624/364 286/625/358
f 285/626/276 291/627/363 293/628/367 287/629/277
f 410/630/362 411/631/368 296/632/369 291/633/363
f 292/619/364 297/634/370 300/635/371 295/620/365
f 294/636/366 299/637/372 297/634/370 292/619/364
f 291/627/363 296/638/369 298/639/373 293/628/367
f 262/559/318 302/566/325 303/572/331 267/560/319
f 266/576/335 304/571/330 335/126/98 331/124/96
f 371/533/302 370/567/326 301/570/329 263/534/303
f 347/557/316 344/563/322 302/566/325 262/559/318
f 319/197/15 246/640/270 311/479/260 337/67/51
f 225/556/272 241/555/283 309/641/273 306/480/261
f 241/507/283 230/506/282 308/498/262 309/497/273
f 316/200/29 238/642/274 310/495/266 336/21/20
f 238/643/274 224/644/264 307/645/263 310/646/266
f 230/613/282 226/647/267 307/484/263 308/483/262
f 246/640/270 225/556/272 306/480/261 311/479/260
f 322/206/140 258/584/338 313/508/287 340/43/38
f 305/561/320 338/519/294 254/518/293 341/562/321
f 305/561/320 267/560/319 266/576/335 256/575/334
f 346/558/317 347/557/316 262/559/318 341/562/321
f 227/540/307 416/602/354 281/648/350 283/649/374
f 231/531/300 426/530/299 427/650/375 247/651/376
f 232/652/339 271/653/342 257/509/288 415/512/290
f 301/570/329 265/569/328 348/564/323 344/563/322
f 263/534/303 301/570/329 344/563/322 347/557/316
f 260/543/309 261/547/313 253/546/312 236/535/304
f 253/546/312 372/532/301 236/535/304
f 249/542/308 258/654/338 261/547/313 260/543/309
f 257/509/288 271/653/342 273/545/311 345/544/310
f 312/581/336 342/591/345 276/655/377 270/582/337
f 251/491/269 270/582/337 272/589/343 235/493/271
f 235/493/271 272/589/343 232/585/339 415/656/290
f 417/657/378 353/658/379 423/659/380
f 418/660/381 356/661/382 355/662/383 424/663/384
f 420/664/385 354/665/386 353/658/379 417/657/378
f 421/666/387 357/667/388 356/668/382 418/669/381
f 424/670/384 355/671/383 354/672/386 420/673/385
f 422/235/156 349/236/157 357/667/388 421/666/387
f 362/674/389 359/675/390 283/649/374 361/676/391
f 364/677/392 281/678/350 280/679/349 363/680/393
f 367/681/394 360/682/361 359/675/390 362/674/389
f 361/683/391 283/684/374 281/678/350 364/677/392
f 363/680/393 280/679/349 282/685/352 437/686/395
f 356/251/382 365/253/396 367/245/394 355/252/383
f 349/236/157 369/255/167 366/687/397 357/667/388
f 351/688/398 363/689/393 437/690/395 438/691/399
f 353/260/379 361/692/391 364/693/392 352/694/400
f 355/695/383 367/681/394 362/674/389 354/696/386
f 357/667/388 366/687/397 365/697/396 356/668/382
f 352/698/400 364/699/392 363/689/393 351/688/398
f 354/269/386 362/271/389 361/692/391 353/260/379
f 369/272/167 314/275/73 237/700/315 366/701/397
f 365/253/396 222/276/286 360/246/361 367/245/394
f 366/701/397 237/700/315 222/702/286 365/703/396
f 283/649/374 359/675/390 360/682/361 284/704/279
f 327/280/171 334/281/172 370/567/326 371/533/302
f 334/281/172 330/282/173 373/568/327 370/567/326
f 315/283/174 327/280/171 371/533/302 372/532/301
f 387/705/401 375/706/402 374/707/403 386/708/404
f 387/709/401 388/710/405 377/711/406 375/712/402
f 388/710/405 389/713/407 379/714/408 377/711/406
f 386/715/404 390/716/409 294/717/366 288/718/360
f 390/719/409 391/720/410 299/721/372 294/722/366
f 391/723/410 392/724/411 297/725/370 299/726/372
f 298/727/373 393/728/412 385/729/413 293/730/367
f 393/728/412 394/731/414 380/732/415 385/729/413
f 392/724/411 395/733/416 300/734/371 297/725/370
f 413/735/417 412/736/418 380/732/415 394/731/414
f 411/315/368 413/318/417 394/317/414 296/316/369
f 383/737/419 384/738/420 395/733/416 392/724/411
f 298/322/373 296/316/369 394/317/414 393/323/412
f 382/739/421 383/737/419 392/724/411 391/723/410
f 381/740/422 382/741/421 391/720/410 390/719/409
f 374/707/403 381/740/422 390/719/409 386/708/404
f 376/742/423 378/743/424 389/713/407 388/710/405
f 290/744/357 376/742/423 388/710/405 387/709/401
f 290/745/357 387/705/401 386/708/404 288/746/360
f 412/736/418 414/747/425 401/748/426 380/732/415
f 381/749/422 402/750/427 403/751/428 382/752/421
f 375/753/402 398/754/429 397/755/430 374/756/403
f 382/741/421 403/757/428 404/758/431 383/759/419
f 377/760/406 399/761/432 398/762/429 375/763/402
f 389/764/407 378/765/424 440/766/433
f 379/767/408 400/768/434 399/761/432 377/760/406
f 383/737/419 404/769/431 405/770/435 384/738/420
f 374/756/403 397/755/430 402/771/427 381/772/422
f 384/738/420 405/770/435 414/747/425 412/736/418
f 300/773/371 395/774/416 413/775/417 411/776/368
f 395/733/416 384/738/420 412/736/418 413/735/417
f 295/620/365 300/635/371 411/777/368 410/615/362
f 289/621/359 295/620/365 410/615/362 407/614/285
f 250/517/292 233/516/291 408/778/284 409/548/314
f 323/358/49 250/517/292 409/548/314 406/91/72
f 230/613/282 288/612/360 286/779/358 226/647/267
f 380/732/415 440/780/433 441/781/436 385/729/413
f 385/729/413 396/782/437 287/783/277 293/730/367
f 247/651/376 427/650/375 429/364/213 320/363/212
f 416/784/354 339/785/295 428/786/298 242/787/297
f 416/784/354 242/787/297 430/598/351 281/597/350
f 346/558/317 341/562/321 254/518/293 343/788/438
f 428/529/298 339/520/295 338/519/294 426/530/299
f 426/530/299 338/519/294 305/561/320 256/575/334 427/650/375
f 427/650/375 256/575/334 329/123/95 429/364/213
f 231/789/300 432/595/348 430/598/351 242/787/297
f 231/789/300 247/790/376 431/600/353 432/595/348
f 320/373/212 433/152/116 431/600/353 247/790/376
f 259/510/289 434/791/355 234/792/281 243/511/280
f 233/516/291 289/793/359 407/794/285 408/778/284
f 239/538/306 228/541/278 434/795/355 259/796/289
f 425/380/215 351/797/398 438/798/399 358/381/216
f 419/799/439 352/800/400 351/797/398 425/380/215
f 343/788/438 260/543/309 236/535/304 346/558/317
f 345/544/310 260/543/309 343/788/438 436/801/440
f 315/283/174 372/532/301 253/546/312 326/87/68
f 228/541/278 227/540/307 283/649/374 284/704/279
f 343/788/438 254/518/293 221/536/305 436/801/440
f 221/536/305 257/509/288 345/544/310 436/801/440
f 432/595/348 431/600/353 282/599/352 280/596/349
f 437/690/395 368/388/220 350/387/219 438/691/399
f 282/685/352 333/390/119 368/389/220 437/686/395
f 438/798/399 350/391/219 358/381/216
f 322/392/140 328/88/69 261/547/313 258/654/338
f 270/582/337 276/655/377 278/590/344 272/589/343
f 287/802/277 396/803/437 439/804/441 435/604/356
f 470/805/442 471/806/443 473/807/444 472/808/445
f 440/809/433 442/810/446 441/811/436
f 400/812/434 379/813/408 389/764/407 440/766/433
f 396/782/437 442/814/446 443/815/447 439/816/441
f 385/729/413 441/781/436 442/814/446 396/782/437
f 440/817/433 473/818/444 471/819/443 442/820/446
f 376/821/423 467/822/448 466/823/449 378/765/424
f 405/770/435 404/769/431 452/824/450 453/825/451
f 414/826/425 449/827/452 401/828/426
f 447/829/453 459/830/454 457/831/455 402/832/427
f 397/833/430 444/834/456 447/835/453 402/836/427
f 452/824/450 464/837/457 465/838/458 453/825/451
f 399/839/432 445/840/459 398/841/429
f 398/842/429 445/843/459 444/834/456 397/833/430
f 449/844/452 414/747/425 405/770/435 453/825/451
f 444/845/456 445/840/459 454/846/460 455/847/461
f 399/839/432 400/848/434 454/846/460 445/840/459
f 444/845/456 474/849/462 450/850/463 447/851/453
f 402/832/427 457/831/455 456/852/464 403/757/428
f 454/853/460 400/854/434 446/855/465 455/856/461
f 446/855/465 451/857/466 475/858/467 455/856/461
f 448/859/468 458/860/469 464/837/457 452/824/450
f 451/861/466 450/850/463 474/849/462 475/862/467
f 457/831/455 459/830/454 458/863/469 456/852/464
f 461/864/470 460/865/471 440/780/433 380/732/415
f 459/866/454 462/867/472 464/837/457 458/860/469
f 464/837/457 462/867/472 463/868/473 465/838/458
f 460/865/471 461/864/470 465/838/458 463/868/473
f 451/857/466 463/868/473 462/867/472 450/869/463
f 403/757/428 456/852/464 458/863/469 448/870/468
f 450/869/463 462/867/472 459/866/454 447/871/453
f 453/825/451 465/838/458 461/864/470 449/844/452
f 449/872/452 461/873/470 380/874/415 401/875/426
f 446/855/465 460/865/471 463/868/473 451/857/466
f 404/758/431 403/757/428 448/870/468 452/876/450
f 469/877/474 468/878/475 466/879/449 467/880/448
f 443/881/447 470/882/442 472/883/445 378/884/424
f 443/815/447 468/878/475 469/877/474 439/816/441
f 378/884/424 466/885/449 468/886/475 443/881/447
f 376/742/423 439/816/441 469/877/474 467/880/448
f 442/887/446 471/888/443 470/882/442 443/881/447
f 378/889/424 472/890/445 473/891/444 440/892/433
f 439/816/441 376/742/423 290/744/357 435/893/356
f 446/855/465 400/854/434 440/780/433 460/865/471
f 474/849/462 444/845/456 455/847/461 475/862/467
f 228/32/278 287/33/277 435/474/356 434/473/355
f 423/659/380 353/658/379 352/800/400 419/799/439
